STARTFONT 2.3
FONT -FontForge-Indie Flower-Book-R-Normal--28-280-72-72-P-129-ISO10646-1
SIZE 28 72 72  2
FONTBOUNDINGBOX 35 42 -4 -14
COMMENT "Generated by fontforge, http://fontforge.sourceforge.net"
COMMENT "Copyright (c) 2010, Kimberly Geswein (kimberlygeswein.com)"
STARTPROPERTIES 40
FOUNDRY "FontForge"
FAMILY_NAME "Indie Flower"
WEIGHT_NAME "Book"
SLANT "R"
SETWIDTH_NAME "Normal"
ADD_STYLE_NAME ""
PIXEL_SIZE 28
POINT_SIZE 280
RESOLUTION_X 72
RESOLUTION_Y 72
SPACING "P"
AVERAGE_WIDTH 129
CHARSET_REGISTRY "ISO10646"
CHARSET_ENCODING "1"
FONTNAME_REGISTRY ""
CHARSET_COLLECTIONS "ISO8859-2 ISO8859-9 ISO8859-4 ISO10646-1"
BITS_PER_PIXEL 2
FONT_NAME "IndieFlower"
FACE_NAME "Indie Flower"
COPYRIGHT "Copyright (c) 2010, Kimberly Geswein (kimberlygeswein.com)"
FONT_VERSION "1.001 2010"
FONT_ASCENT 22
FONT_DESCENT 6
UNDERLINE_POSITION -3
UNDERLINE_THICKNESS 2
X_HEIGHT 10
CAP_HEIGHT 14
RAW_ASCENT 799
RAW_DESCENT 200
NORM_SPACE 11
RELATIVE_WEIGHT 40
RELATIVE_SETWIDTH 50
SUPERSCRIPT_X 0
SUPERSCRIPT_Y 13
SUPERSCRIPT_SIZE 18
SUBSCRIPT_X 0
SUBSCRIPT_Y 3
SUBSCRIPT_SIZE 18
AVG_LOWERCASE_WIDTH 126
AVG_UPPERCASE_WIDTH 151
ENDPROPERTIES
CHARS 356
STARTCHAR space
ENCODING 32
SWIDTH 375 0
DWIDTH 11 0
BBX 1 1 0 0
BITMAP
00
ENDCHAR
STARTCHAR exclam
ENCODING 33
SWIDTH 149 0
DWIDTH 4 0
BBX 4 23 0 0
BITMAP
34
34
34
34
34
34
34
38
38
38
38
38
38
38
28
24
00
00
00
00
2D
BE
7D
ENDCHAR
STARTCHAR quotedbl
ENCODING 34
SWIDTH 234 0
DWIDTH 7 0
BBX 6 9 0 14
BITMAP
0040
40C0
A0D0
B0E0
70E0
74E0
38E0
2CA0
18A0
ENDCHAR
STARTCHAR numbersign
ENCODING 35
SWIDTH 768 0
DWIDTH 22 0
BBX 21 14 0 0
BITMAP
000050400000
0000A0D00000
0000A0A00000
0000B0755400
0000BAFFFD00
01AFFFF90500
6FE9B4340000
B900747ABE40
0001BFFFEF80
05BFFE780000
069538380000
000028280000
0000142C0000
000000140000
ENDCHAR
STARTCHAR dollar
ENCODING 36
SWIDTH 581 0
DWIDTH 16 0
BBX 16 26 0 0
BITMAP
00005000
0000A240
0000D340
0000D340
0001FB40
000BFF90
003FD790
00B1C700
00A1C600
0076C600
001FCA00
0007DE00
0003FF00
00039FC0
0003ACB0
00036828
0003341D
6007340E
B806740A
1E0A740E
06EE741D
007FF43C
000FFAF4
000FBF80
000EB000
00056000
ENDCHAR
STARTCHAR percent
ENCODING 37
SWIDTH 636 0
DWIDTH 18 0
BBX 17 17 0 0
BITMAP
0000000800
0100003400
1FE000A000
3DB801C000
B01D070000
B00D0D0000
B02C280000
39B4700000
0B90D01400
0002C0BF00
000742D780
000F0742C0
002D0A02C0
003C0D0380
00B40D0B40
00E00BFD00
00C002A400
ENDCHAR
STARTCHAR ampersand
ENCODING 38
SWIDTH 457 0
DWIDTH 13 0
BBX 13 20 0 0
BITMAP
00100000
00B80000
00BD0000
00FD0000
00FD0000
00FD0000
00FC0000
00F40000
00F01500
01E0BF40
02E0B400
07B0A000
0A34D000
1D1FC000
280F8000
740B4000
B01FC000
B0789000
BAE03400
2F800400
ENDCHAR
STARTCHAR quotesingle
ENCODING 39
SWIDTH 102 0
DWIDTH 3 0
BBX 3 7 0 13
BITMAP
60
70
74
74
74
34
10
ENDCHAR
STARTCHAR parenleft
ENCODING 40
SWIDTH 421 0
DWIDTH 12 0
BBX 12 18 0 -1
BITMAP
000010
0002FC
000F59
007800
00E000
028000
070000
0E0000
2C0000
380000
740000
700000
700000
740000
380000
1E0000
0BE500
02FE00
ENDCHAR
STARTCHAR parenright
ENCODING 41
SWIDTH 290 0
DWIDTH 8 0
BBX 8 19 0 -2
BITMAP
1900
1F80
03D0
00F4
0078
002C
001D
000E
000E
000D
001C
0028
0074
01E0
03D0
0F80
3F00
BC00
5000
ENDCHAR
STARTCHAR asterisk
ENCODING 42
SWIDTH 412 0
DWIDTH 12 0
BBX 11 11 0 6
BITMAP
000028
2921F4
0FBB80
03FF90
19FFD0
7FFF40
0B5F80
0E0FD0
0C0BE0
000A10
000500
ENDCHAR
STARTCHAR plus
ENCODING 43
SWIDTH 459 0
DWIDTH 13 0
BBX 13 12 0 0
BITMAP
00600000
00700000
00740000
00380000
003D0000
16BFFE40
BFBFAA00
502D0000
001D0000
001D0000
001D0000
000D0000
ENDCHAR
STARTCHAR comma
ENCODING 44
SWIDTH 130 0
DWIDTH 4 0
BBX 3 9 0 -5
BITMAP
74
78
38
38
38
74
B4
B0
A0
ENDCHAR
STARTCHAR hyphen
ENCODING 45
SWIDTH 375 0
DWIDTH 11 0
BBX 10 3 0 6
BITMAP
1ABF80
7FAAD0
100000
ENDCHAR
STARTCHAR period
ENCODING 46
SWIDTH 204 0
DWIDTH 6 0
BBX 4 5 1 0
BITMAP
3D
7E
BF
BE
38
ENDCHAR
STARTCHAR slash
ENCODING 47
SWIDTH 309 0
DWIDTH 9 0
BBX 8 21 0 0
BITMAP
0002
0007
0007
000A
000D
001D
002C
0038
0074
00B0
00E0
02D0
03C0
0780
0B40
0E00
1D00
3C00
7800
B000
A000
ENDCHAR
STARTCHAR zero
ENCODING 48
SWIDTH 430 0
DWIDTH 12 0
BBX 12 12 0 0
BITMAP
00BE00
07FFC0
0E01F0
280078
74002C
70001D
70001D
70001C
38003C
1D00B4
07EBE0
01BF40
ENDCHAR
STARTCHAR one
ENCODING 49
SWIDTH 318 0
DWIDTH 9 0
BBX 9 17 0 0
BITMAP
000100
000340
000740
000B00
000F00
002F00
00BE00
02FE00
0B6E00
2D2D00
782D00
502C00
003C00
003800
003800
003400
003000
ENDCHAR
STARTCHAR two
ENCODING 50
SWIDTH 497 0
DWIDTH 14 0
BBX 13 15 0 0
BITMAP
0007F400
000E2C00
001C0E00
00080B00
00000B00
00000700
00000B00
00000B00
00000E00
00001D00
00003800
BF90A000
BFFFE000
2FFFFE80
05555BC0
ENDCHAR
STARTCHAR three
ENCODING 51
SWIDTH 430 0
DWIDTH 12 0
BBX 12 15 0 0
BITMAP
1AAA00
3EAB80
1400D0
0000D0
0007C0
05BE00
0FFD00
01BF80
0006E0
000078
20002C
78001D
1E402D
07EAB8
006FD0
ENDCHAR
STARTCHAR four
ENCODING 52
SWIDTH 412 0
DWIDTH 12 0
BBX 11 17 0 0
BITMAP
090000
1D0000
2C0000
380000
740004
70002C
70003C
7000B8
7401F4
3807F4
2EAFF4
0BFD74
019074
000078
000078
000038
000034
ENDCHAR
STARTCHAR five
ENCODING 53
SWIDTH 571 0
DWIDTH 16 0
BBX 15 19 0 0
BITMAP
00015550
001FFFFC
001E4154
001C0000
00380000
00B00000
00F00000
02FE4000
01AFF400
00006E00
00000780
000001C0
000000D0
100000E0
600000E0
600001D0
39001BC0
1FFFFE00
01BFE400
ENDCHAR
STARTCHAR six
ENCODING 54
SWIDTH 440 0
DWIDTH 12 0
BBX 12 17 0 0
BITMAP
0001A8
000BFD
007D05
00E000
038000
0B0000
1D0000
2C5500
3FFFE0
7D00B8
74002D
70000D
70000E
38001D
2E007C
1FFFF4
02FE40
ENDCHAR
STARTCHAR seven
ENCODING 55
SWIDTH 412 0
DWIDTH 12 0
BBX 10 15 1 0
BITMAP
FAA900
6AAD00
000D00
000D00
000D00
001D00
002D00
2FFFE0
15BDB0
003800
007400
007400
00B000
00E000
009000
ENDCHAR
STARTCHAR eight
ENCODING 56
SWIDTH 375 0
DWIDTH 11 0
BBX 10 16 0 0
BITMAP
06F800
1FAE00
380B00
700B00
701D00
383800
0BF000
03F000
0B7800
1D0A00
2C0280
2C00D0
2C00A0
0E00A0
07D6D0
00BF40
ENDCHAR
STARTCHAR nine
ENCODING 57
SWIDTH 300 0
DWIDTH 8 0
BBX 8 17 0 0
BITMAP
0BE4
2D6D
740B
B00F
B00F
B01F
782E
2FFE
01BE
001D
000D
000D
001D
001D
001D
000D
000D
ENDCHAR
STARTCHAR colon
ENCODING 58
SWIDTH 84 0
DWIDTH 2 0
BBX 2 8 0 2
BITMAP
10
70
20
00
00
00
10
60
ENDCHAR
STARTCHAR semicolon
ENCODING 59
SWIDTH 128 0
DWIDTH 4 0
BBX 4 16 -1 -5
BITMAP
18
1D
04
00
00
00
00
05
0B
0B
0A
0E
2D
3C
78
70
ENDCHAR
STARTCHAR less
ENCODING 60
SWIDTH 487 0
DWIDTH 14 0
BBX 13 12 0 0
BITMAP
00000140
00001B40
00007D00
0002E000
001F4000
00B80000
07D00000
1E000000
7D000000
BFFA5000
06AFFD00
00001A00
ENDCHAR
STARTCHAR equal
ENCODING 61
SWIDTH 524 0
DWIDTH 15 0
BBX 14 8 0 3
BITMAP
1AAAAA90
7FFFAAF0
00000010
00000000
00000000
01555500
7FFFFFC0
15555500
ENDCHAR
STARTCHAR greater
ENCODING 62
SWIDTH 403 0
DWIDTH 11 0
BBX 10 13 1 0
BITMAP
E00000
B90000
1FD000
01FF90
0016F0
0001F0
0007D0
001F40
00B800
07D000
2F4000
B80000
D00000
ENDCHAR
STARTCHAR question
ENCODING 63
SWIDTH 272 0
DWIDTH 8 0
BBX 7 24 0 0
BITMAP
7F90
A6F0
4038
002C
002C
002C
003C
0078
00F0
01E0
03C0
0780
0B00
0F50
07F8
0054
0000
0000
0000
0000
0000
0000
0038
0028
ENDCHAR
STARTCHAR at
ENCODING 64
SWIDTH 815 0
DWIDTH 23 0
BBX 22 25 0 0
BITMAP
0001BF900000
001FA6FE0000
0079001BD000
01D00000B800
074000001E00
0D0000000780
1800000001D0
340005A400E0
30002EBE40B0
6000E007D070
60028000E070
6007000A4070
600A000F00B0
700D000F00E0
340D000F01D0
280D001F43C0
1C0A007AEF40
0E0396E0B900
0741BF400000
02D000000000
00B400000000
002D00000000
000B80000580
0001F956BF40
00002FFFA400
ENDCHAR
STARTCHAR A
ENCODING 65
SWIDTH 562 0
DWIDTH 16 0
BBX 15 22 0 0
BITMAP
00050000
007FE000
02D07D00
07400F00
0A000740
0D0002C0
0C0001D0
1C0000A0
180000B0
18000070
28000074
28000034
29550078
7FFFFFF8
2C000578
1C00002C
1C00002C
1C00002C
1D00002C
1D00003C
0E000038
0A000034
ENDCHAR
STARTCHAR B
ENCODING 66
SWIDTH 741 0
DWIDTH 21 0
BBX 21 20 0 0
BITMAP
000550000000
06FFFE400000
7EBE96E00000
503C00740000
001C00380000
000D00380000
000E00B00000
000B1BD00000
00073FC00000
00075BF80000
0003807F4000
00038006E000
0003C0007800
0002C0001D00
0002C0000F00
0001D0000B00
0002C0000B40
000BE0001F00
0002FEAAFD00
00005AFFE000
ENDCHAR
STARTCHAR C
ENCODING 67
SWIDTH 515 0
DWIDTH 14 0
BBX 14 18 0 0
BITMAP
0006F800
002FBC00
00B81800
02D02400
07400000
0D000000
18000000
34000000
70000000
70000000
70000000
70000000
70000000
34000000
2C000000
1E005AD0
0BFFFF80
01FE5000
ENDCHAR
STARTCHAR D
ENCODING 68
SWIDTH 741 0
DWIDTH 21 0
BBX 20 19 0 -1
BITMAP
016A500000
2FFFFE4000
6500FBE400
0000B07E00
0000B00B80
00007001E0
0000740078
000034002D
000038000E
000038000A
00002C000B
00002C000B
00002C000E
00002C002D
00001C007C
00010402F4
0003E96FD0
0001BFFD00
0000054000
ENDCHAR
STARTCHAR E
ENCODING 69
SWIDTH 524 0
DWIDTH 15 0
BBX 14 18 0 0
BITMAP
15500000
3FFFFF40
39555580
38000000
38000000
38000000
38000000
3816BF00
7FFFA400
79000000
74000000
70000000
70000000
70000000
70000000
70001540
3EBFFFD0
0BFFEA00
ENDCHAR
STARTCHAR F
ENCODING 70
SWIDTH 514 0
DWIDTH 14 0
BBX 18 17 -1 0
BITMAP
016AAA9400
7FFFFFFF80
55B9001BE0
0074000050
0034000000
0034000000
0034000000
0038000000
01BFFFD000
0BFFFE8000
001D000000
001D000000
000D000000
000E000000
000E000000
000F000000
0006000000
ENDCHAR
STARTCHAR G
ENCODING 71
SWIDTH 571 0
DWIDTH 16 0
BBX 15 17 1 -2
BITMAP
00001A40
0006FFD0
006E4050
01E00000
0B400000
2D000000
74040000
B00FBFD0
E006AAE0
D00000A0
D00000A0
A00001E0
780007E0
2FEAFEE0
06A940E0
000000B4
00000074
ENDCHAR
STARTCHAR H
ENCODING 72
SWIDTH 524 0
DWIDTH 15 0
BBX 14 19 0 0
BITMAP
000000C0
300001C0
340001C0
340001C0
340002C0
280002C0
280002C0
2C0006C0
2C006FC0
1C06FAC0
1D6F41C0
2FF401C0
7F4001C0
1E0001D0
0E0001D0
0A0001D0
0A0000E0
0A0000E0
050000A0
ENDCHAR
STARTCHAR I
ENCODING 73
SWIDTH 167 0
DWIDTH 5 0
BBX 5 16 0 0
BITMAP
4000
A000
7000
3400
3800
2C00
1C00
1D00
0D00
0E00
0E00
0B00
0B00
0B00
0740
0300
ENDCHAR
STARTCHAR J
ENCODING 74
SWIDTH 439 0
DWIDTH 12 0
BBX 12 20 0 0
BITMAP
000010
000030
000034
000038
00002C
00002C
00001C
00001D
00001D
00000E
20000E
70000A
74000A
28000A
0D000A
03400A
01D00E
00781D
001FAC
0002F4
ENDCHAR
STARTCHAR K
ENCODING 75
SWIDTH 468 0
DWIDTH 13 0
BBX 13 17 0 0
BITMAP
00005000
6002D000
700B4000
702D0000
70780000
35E00000
37800000
2F000000
2D000000
2F000000
2F800000
29F00000
287D0000
2C0B8000
2C01F400
1D006E00
0C000B40
ENDCHAR
STARTCHAR L
ENCODING 76
SWIDTH 346 0
DWIDTH 10 0
BBX 9 15 0 0
BITMAP
180000
2C0000
2C0000
380000
380000
380000
740000
740000
740000
700000
700000
740000
380000
2FFA80
06FFC0
ENDCHAR
STARTCHAR M
ENCODING 77
SWIDTH 534 0
DWIDTH 15 0
BBX 14 17 0 0
BITMAP
740001C0
7C0003C0
2E0007C0
1F400BC0
0FD02FC0
1EFEFFC0
1D2FE2C0
1D0002C0
1D0001C0
1D0001D0
1D0001D0
1D0001E0
1D0000E0
1D0000F0
1D0000F0
1D0000B0
040000B0
ENDCHAR
STARTCHAR N
ENCODING 78
SWIDTH 609 0
DWIDTH 17 0
BBX 17 15 0 0
BITMAP
2400000000
2800009000
2C0000F400
2D0000B800
2E00003C00
2F00002D00
2F40000E00
3FC0000B00
39D0000740
34B0000740
3438000740
381E000F00
7807D46D00
7801FFF800
34001A9000
ENDCHAR
STARTCHAR O
ENCODING 79
SWIDTH 609 0
DWIDTH 17 0
BBX 17 14 0 0
BITMAP
0065000000
07FFE00000
1E45BE0000
38001BD000
700001F400
7000007C00
7000001D00
7000000B00
7400000700
3C00000740
1E00000B00
0BD0007D00
02FE6BE400
002BF94000
ENDCHAR
STARTCHAR P
ENCODING 80
SWIDTH 627 0
DWIDTH 18 0
BBX 17 17 0 0
BITMAP
06AA500000
7EABFE4000
74001BF800
6001006E00
0003000780
00030002C0
00030002C0
00034002C0
0003400B80
0003917E00
0003FFE400
0003EA4000
0002C00000
0002C00000
0001C00000
0000D00000
0000800000
ENDCHAR
STARTCHAR Q
ENCODING 81
SWIDTH 642 0
DWIDTH 18 0
BBX 18 18 0 -3
BITMAP
006F900000
02EAFD0000
0B002F4000
1D000FE000
28000D7800
34001C1E00
7400000B40
7400000380
34005001C0
38007000D0
2C003801C0
0E001E0780
07D01FBE00
01FFFFF800
001BFAB400
0000001D00
0000000790
00000001F0
ENDCHAR
STARTCHAR R
ENCODING 82
SWIDTH 579 0
DWIDTH 16 0
BBX 17 19 -1 -1
BITMAP
0055500000
1BFFFF8000
3D4056F400
7000007C00
2050001E00
00A0000E00
00A0007D00
00B05BF800
007FFF8000
007E900000
003D000000
003F000000
002B800000
0028E00000
001C380000
000C0B4000
000902E000
000500BD00
0000001B40
ENDCHAR
STARTCHAR S
ENCODING 83
SWIDTH 627 0
DWIDTH 18 0
BBX 17 18 0 -1
BITMAP
0006AA4000
007E9BF400
00E0007C00
01C0000400
01D0000000
00B4000000
002E000000
0007E00000
0000BE0000
00000BE000
100000BD00
7000001F00
7400000380
2C00000380
0B40000780
02FA556F00
001BFFE400
0000140000
ENDCHAR
STARTCHAR T
ENCODING 84
SWIDTH 581 0
DWIDTH 16 0
BBX 19 18 0 0
BITMAP
5555400000
AFFFFFEA40
0056B9AFF4
0000700054
0000740000
0000340000
0000340000
0000340000
0000380000
0000380000
00002C0000
00002C0000
00002D0000
00001D0000
00001E0000
00000E0000
00000F4000
0000078000
ENDCHAR
STARTCHAR U
ENCODING 85
SWIDTH 571 0
DWIDTH 16 0
BBX 16 15 0 0
BITMAP
1D000140
380002C0
300002C0
700002C0
700002D0
700001D0
340000D0
340000E0
280000B0
2C0000B4
1D0001F8
0B0007FC
07806E6D
02FFF40E
007F4000
ENDCHAR
STARTCHAR V
ENCODING 86
SWIDTH 421 0
DWIDTH 12 0
BBX 11 15 0 0
BITMAP
500004
74001C
3C002C
2D003C
1E003C
0F0078
0B8074
03C0B4
02D0F0
00F0E0
00B5D0
007AC0
002F80
001F00
000900
ENDCHAR
STARTCHAR W
ENCODING 87
SWIDTH 703 0
DWIDTH 20 0
BBX 19 14 0 0
BITMAP
6000000040
A0000001D0
A0000001E0
B0000000F0
B0000000B4
B000800078
B400D0003C
7400E0002C
7400F0001C
3801F4001C
2C07FC0038
1E1F5F41B4
0BFC07FFD0
01A000BE40
ENDCHAR
STARTCHAR X
ENCODING 88
SWIDTH 534 0
DWIDTH 15 0
BBX 15 17 0 -2
BITMAP
05000000
0B000064
038002E0
02C00B40
00E02C00
0075E000
002F8000
002F0000
007F0000
01EB8000
03C2D000
0B40B400
1E003C00
2C001E00
74000700
70000000
50000000
ENDCHAR
STARTCHAR Y
ENCODING 89
SWIDTH 403 0
DWIDTH 11 0
BBX 11 19 0 -1
BITMAP
600000
700018
780028
2D0038
0F4074
03D0F0
00BEE0
001FD0
0003C0
000380
000740
000A00
000E00
001D00
001C00
001C00
001C00
001C00
000400
ENDCHAR
STARTCHAR Z
ENCODING 90
SWIDTH 571 0
DWIDTH 16 0
BBX 16 18 0 0
BITMAP
01540000
2FFF8000
7901F400
00002800
00001C00
00000D00
00001C00
00002C00
0001BD50
01AFFFF4
03ABF540
0002C000
00074000
000E0000
002C0000
007801AD
007EBFF9
002FFA40
ENDCHAR
STARTCHAR bracketleft
ENCODING 91
SWIDTH 477 0
DWIDTH 13 0
BBX 15 23 0 -3
BITMAP
00001A80
001BFA40
06FE4000
7F900000
78000000
38000000
2C000000
2D000000
1E000000
0E000000
0A000000
0B000000
07000000
07400000
03400000
03400000
02800000
02800000
01C00000
01C00000
01E6AAA8
01FFEAA8
00900000
ENDCHAR
STARTCHAR backslash
ENCODING 92
SWIDTH 430 0
DWIDTH 12 0
BBX 12 15 0 0
BITMAP
A00000
740000
2D0000
0F4000
07D000
01F000
00B800
002E00
000F40
0007D0
0002F0
0000B8
00003D
00001E
00001D
ENDCHAR
STARTCHAR bracketright
ENCODING 93
SWIDTH 430 0
DWIDTH 12 0
BBX 12 27 0 -3
BITMAP
140000
BFFA00
06BFD0
0001E0
0000B0
000074
000038
000038
000028
000028
000028
000018
00001C
00001C
00001C
00001C
00001C
00001C
00001C
00001D
00001D
00001D
00001D
00001D
05556E
0FFFFE
0AAAA8
ENDCHAR
STARTCHAR asciicircum
ENCODING 94
SWIDTH 375 0
DWIDTH 11 0
BBX 8 7 1 14
BITMAP
0040
01D0
03F4
0BFC
2E2E
780B
0001
ENDCHAR
STARTCHAR underscore
ENCODING 95
SWIDTH 656 0
DWIDTH 18 0
BBX 17 3 1 0
BITMAP
EA55400000
1BFFFFFF80
0015AAFF80
ENDCHAR
STARTCHAR grave
ENCODING 96
SWIDTH 172 0
DWIDTH 5 0
BBX 5 4 0 12
BITMAP
5000
3C00
1F00
0240
ENDCHAR
STARTCHAR a
ENCODING 97
SWIDTH 505 0
DWIDTH 14 0
BBX 14 14 0 0
BITMAP
007E0000
00EBD000
0000B400
00002D00
00000E00
00694B40
0BFFFF80
2E402FC0
740007C0
700002D0
700000D0
3D000540
0BFFFF90
01AFE400
ENDCHAR
STARTCHAR b
ENCODING 98
SWIDTH 497 0
DWIDTH 14 0
BBX 14 18 0 0
BITMAP
60000000
B0000000
B0000000
74000000
74000000
34000000
38000000
28000000
2D540000
1FFFE000
1F45BD00
1E001B40
1D0003C0
0D0001D0
0E0001D0
0B8007D0
03FAAF80
00BFF900
ENDCHAR
STARTCHAR c
ENCODING 99
SWIDTH 449 0
DWIDTH 13 0
BBX 12 12 0 0
BITMAP
00BF80
0796E0
1E0070
380020
740000
700000
700000
740000
380000
2E4000
0BFAA9
01BFF9
ENDCHAR
STARTCHAR d
ENCODING 100
SWIDTH 524 0
DWIDTH 15 0
BBX 14 20 0 0
BITMAP
00002400
00002C00
00002E00
00001F00
00000F40
00000B40
00000780
02F90780
0BFFD3C0
2F41FBC0
3D002FC0
78000BD0
740007D0
740007D0
74000BD0
78002FE0
3C007EE0
1E06F0E0
0BFF8060
02F90000
ENDCHAR
STARTCHAR e
ENCODING 101
SWIDTH 515 0
DWIDTH 14 0
BBX 14 15 0 0
BITMAP
00150000
01FFC000
0B41E000
1D007000
38003400
74007000
7002E000
756F8000
77F90000
74000000
38000000
1D000000
0B900000
02FFAFD0
002BF900
ENDCHAR
STARTCHAR f
ENCODING 102
SWIDTH 376 0
DWIDTH 11 0
BBX 13 20 0 0
BITMAP
000A9000
007FF800
00F41E00
02C00740
03400140
03000000
07000000
07000000
07400000
07400000
07800000
AFFE9000
E7EBD000
01E00000
00E00000
00740000
003C0000
001E0000
000F4000
00074000
ENDCHAR
STARTCHAR g
ENCODING 103
SWIDTH 366 0
DWIDTH 10 0
BBX 15 26 -4 -14
BITMAP
00001400
0001FF00
00078380
001E01C0
002C01D0
003401E0
007001E0
007002E0
007403E0
002E6FF0
000BFAF0
000150F0
000000B0
000000B0
000000B0
00000070
00000070
00000074
60000074
A0000070
B00000B0
390000E0
1F9001D0
02FE47C0
006FFF40
0001A900
ENDCHAR
STARTCHAR h
ENCODING 104
SWIDTH 427 0
DWIDTH 12 0
BBX 12 20 -1 0
BITMAP
200000
700000
380000
380000
2C0000
1D0000
1D0000
0E1A40
0FFFD0
0BE5F4
0B0028
0B001C
07000D
07000A
07400A
07400B
03800B
03800F
03800E
02400D
ENDCHAR
STARTCHAR i
ENCODING 105
SWIDTH 174 0
DWIDTH 5 0
BBX 5 17 0 0
BITMAP
6000
7000
0000
0000
0400
1C00
1C00
1C00
1D00
1D00
0E00
0E00
0F00
0F40
0B40
0740
0300
ENDCHAR
STARTCHAR j
ENCODING 106
SWIDTH 200 0
DWIDTH 6 0
BBX 10 30 -3 -13
BITMAP
004000
00D000
009000
000000
000000
000000
002400
002800
002C00
001D00
001E00
000E00
000F00
000B40
000B40
000780
000380
000380
0003C0
0002C0
8002C0
D001D0
B001D0
7401D0
3C01D0
1E01D0
0B81C0
02FBC0
007F80
000500
ENDCHAR
STARTCHAR k
ENCODING 107
SWIDTH 403 0
DWIDTH 11 0
BBX 11 17 0 0
BITMAP
C00000
D00000
A00000
B00000
700180
740780
340E00
382800
2CA000
2FC000
1F4000
1F0000
1F4000
1FD000
1EBE40
2C1FFC
1C01A8
ENDCHAR
STARTCHAR l
ENCODING 108
SWIDTH 120 0
DWIDTH 3 0
BBX 3 16 0 0
BITMAP
30
74
74
74
74
78
78
78
78
78
78
78
78
38
34
34
ENDCHAR
STARTCHAR m
ENCODING 109
SWIDTH 750 0
DWIDTH 21 0
BBX 21 12 0 0
BITMAP
0000001A8000
22F900BFF000
7FAB87E07800
7E01EF402D00
3C00BD000E00
38007C000B00
380038000B00
38002C000740
38001D000740
3C000E000B00
2C0004000B00
040000000A00
ENDCHAR
STARTCHAR n
ENCODING 110
SWIDTH 459 0
DWIDTH 13 0
BBX 13 12 0 0
BITMAP
006F8000
26EAE000
7F40B400
7D002C00
78001D00
38000E00
38000B00
3C000B40
2C000740
1D000740
0E000740
06000700
ENDCHAR
STARTCHAR o
ENCODING 111
SWIDTH 487 0
DWIDTH 14 0
BBX 13 12 0 0
BITMAP
006FE000
02FAFC00
0E402E00
28000B40
74000380
70000280
70000380
70000780
38001F40
2E007E00
0BEBF800
01BF9000
ENDCHAR
STARTCHAR p
ENCODING 112
SWIDTH 520 0
DWIDTH 15 0
BBX 14 20 0 -10
BITMAP
005AA400
06FFFE00
1F900B80
3D0001E0
7C0000B0
7C0000B0
7C9001F0
7CBE5BD0
7D2FFF40
3D005000
3E000000
2E000000
1F000000
1F000000
0F400000
0B400000
07800000
03800000
02C00000
01800000
ENDCHAR
STARTCHAR q
ENCODING 113
SWIDTH 412 0
DWIDTH 12 0
BBX 11 23 0 -9
BITMAP
006E80
02E6E0
0F0074
2C0034
380074
7400B4
7000B4
7000F0
7000F0
7400F0
3C00F0
1F96E0
07FFE0
0055E0
0000A0
0000B0
0000B0
0000B0
0000B0
0000B4
000074
000074
000024
ENDCHAR
STARTCHAR r
ENCODING 114
SWIDTH 346 0
DWIDTH 10 0
BBX 10 13 0 0
BITMAP
006900
5BFFC0
BD0590
740000
740000
740000
340000
380000
2C0000
1D0000
0E0000
0B0000
060000
ENDCHAR
STARTCHAR s
ENCODING 115
SWIDTH 514 0
DWIDTH 14 0
BBX 14 13 0 0
BITMAP
01A90000
1FEBD000
3D00A000
3800A000
2C005000
0F940000
01BFF900
00015B80
000002D0
500001E0
3D0002D0
1FEAAF80
01AFF900
ENDCHAR
STARTCHAR t
ENCODING 116
SWIDTH 328 0
DWIDTH 9 0
BBX 9 17 0 0
BITMAP
01C000
02D000
01D000
01D000
01D000
02D000
AFFF80
6BFA40
01D000
01D000
01E000
01E000
01E000
01E000
00E000
00E000
005000
ENDCHAR
STARTCHAR u
ENCODING 117
SWIDTH 501 0
DWIDTH 14 0
BBX 14 13 0 0
BITMAP
70000000
B0000900
B0000E00
B0000E00
70000F00
74000F00
38000F00
2C002F00
1D007F40
0B41E780
03EB82C0
00BE01D0
00000090
ENDCHAR
STARTCHAR v
ENCODING 118
SWIDTH 389 0
DWIDTH 11 0
BBX 11 11 0 0
BITMAP
500000
B40014
3800B4
2C00E0
1E02C0
0B0380
074740
02CB00
01FE00
00BD00
002800
ENDCHAR
STARTCHAR w
ENCODING 119
SWIDTH 656 0
DWIDTH 18 0
BBX 18 12 0 0
BITMAP
1400000000
3400000000
7400000600
B000600340
B0007002C0
B0007401D0
B0007400E0
7400B800E0
2801FC01E0
1D07EE47D0
0BFF47FF80
01B901A900
ENDCHAR
STARTCHAR x
ENCODING 120
SWIDTH 448 0
DWIDTH 13 0
BBX 13 13 0 -2
BITMAP
90000640
B4002E00
2D00B800
0F47D000
03FE0000
00F80000
00FD0000
029F8000
0A03E000
1C00F400
18007D00
00001E00
00000500
ENDCHAR
STARTCHAR y
ENCODING 121
SWIDTH 487 0
DWIDTH 14 0
BBX 13 27 0 -14
BITMAP
00000100
60000200
A0000700
70000740
70000340
74000380
38000380
2C000380
1D0007C0
0B001FC0
03D1BFC0
00BFD1C0
001500C0
000000C0
000000C0
000001C0
000001C0
000001C0
000002C0
000002C0
10000280
28000340
1E000740
0B800A00
02F46D00
007FF800
00069000
ENDCHAR
STARTCHAR z
ENCODING 122
SWIDTH 459 0
DWIDTH 13 0
BBX 12 15 0 0
BITMAP
015400
2FFF40
7802D0
1000D0
0000D0
0001C0
0003C0
16AFF8
3FFE50
007800
01E000
03C000
07C01B
0BFFFE
01BF90
ENDCHAR
STARTCHAR braceleft
ENCODING 123
SWIDTH 393 0
DWIDTH 11 0
BBX 11 28 0 -3
BITMAP
002FD0
02F9B0
0B8010
2D0000
380000
740000
700000
700000
340000
2D0000
0BD000
02FE00
007F40
01FF80
1B91D0
3901D0
0002D0
000B80
002E00
01F400
038000
0B0000
0D0000
0D0000
0E0000
0B8004
03FAF8
00AA50
ENDCHAR
STARTCHAR bar
ENCODING 124
SWIDTH 149 0
DWIDTH 4 0
BBX 4 18 0 0
BITMAP
50
60
70
34
28
28
1C
1C
1C
1D
1D
1D
1D
0D
0D
0D
0E
0D
ENDCHAR
STARTCHAR braceright
ENCODING 125
SWIDTH 440 0
DWIDTH 12 0
BBX 12 34 0 -7
BITMAP
155400
BFFF40
B406D0
2C00B0
0000B4
0000B0
0001E0
0007C0
001E00
007800
01E000
02C000
028000
02FFE0
01FEA0
02C000
02C000
00E000
007800
001E00
000780
0001D0
0000A0
000074
000028
00001D
00000D
00000A
00000E
40001D
E0003C
7D01F4
1FFF90
005400
ENDCHAR
STARTCHAR asciitilde
ENCODING 126
SWIDTH 402 0
DWIDTH 11 0
BBX 11 4 0 11
BITMAP
2F8074
74BAD0
701A40
200000
ENDCHAR
STARTCHAR nonbreakingspace
ENCODING 160
SWIDTH 375 0
DWIDTH 11 0
BBX 1 1 0 0
BITMAP
00
ENDCHAR
STARTCHAR exclamdown
ENCODING 161
SWIDTH 149 0
DWIDTH 4 0
BBX 4 19 0 0
BITMAP
7D
7E
04
00
00
00
28
28
28
28
28
28
28
28
28
28
24
24
24
ENDCHAR
STARTCHAR cent
ENCODING 162
SWIDTH 449 0
DWIDTH 13 0
BBX 12 17 0 -2
BITMAP
001400
001800
002D00
01FFD0
0B5DB0
1D0D30
380E10
740E00
700E00
700E00
740E00
380E00
2E4E00
0FFFA9
02FFE9
000E00
000400
ENDCHAR
STARTCHAR sterling
ENCODING 163
SWIDTH 758 0
DWIDTH 21 0
BBX 21 21 0 0
BITMAP
000000014000
0000002FF800
000000B96E00
000001D00740
000002400240
000007000140
00000A000000
00000D000000
00002EAA4000
001AFFFF8000
01FEBE000000
004028000000
000034000000
000070000000
0000A0000000
0000D0000000
0002C0000000
2AABD5400000
BFFFFFF40000
BFFE6AA40000
2FD000000000
ENDCHAR
STARTCHAR currency
ENCODING 164
SWIDTH 618 0
DWIDTH 17 0
BBX 15 15 1 0
BITMAP
90000004
B80AF878
2EBFFFE0
0BE407C0
0B4000E0
0E000070
0D000030
1C000070
0D0000B0
0B0001D0
07800B80
0BFABF00
1D1A9780
280001D0
10000000
ENDCHAR
STARTCHAR yen
ENCODING 165
SWIDTH 389 0
DWIDTH 11 0
BBX 11 21 0 0
BITMAP
240000
2C0018
1E0038
0A00B4
0701E0
0342D0
018780
00DB40
00BE00
003D00
002C00
157800
6BFFD0
003940
007800
3FFF80
15BA40
007400
00B400
00B400
00B000
ENDCHAR
STARTCHAR brokenbar
ENCODING 166
SWIDTH 117 0
DWIDTH 3 0
BBX 3 16 0 0
BITMAP
30
74
74
74
74
74
74
00
74
74
74
74
74
74
34
34
ENDCHAR
STARTCHAR section
ENCODING 167
SWIDTH 514 0
DWIDTH 14 0
BBX 13 19 1 0
BITMAP
01540000
1FFF9000
7D56F800
74002D00
74000500
2D400000
0FFE9400
7FEABE00
F4000780
E00002C0
B00002C0
7E555B80
0BFFFE00
00556E00
00000B40
90000780
78000B40
1FAABE00
02BFE400
ENDCHAR
STARTCHAR dieresis
ENCODING 168
SWIDTH 397 0
DWIDTH 11 0
BBX 7 3 2 12
BITMAP
6024
F8BC
B478
ENDCHAR
STARTCHAR copyright
ENCODING 169
SWIDTH 667 0
DWIDTH 19 0
BBX 18 16 1 0
BITMAP
001A900000
01FFFE4000
07401BD000
1D0191F800
381FFC2D00
70381D0B00
A0A0050340
D0D0040280
D1D00001C0
D1D00000D0
A0E00000D0
74B40101D0
3D2FFFC780
1F81556E00
07F96BF400
006FF94000
ENDCHAR
STARTCHAR ordfeminine
ENCODING 170
SWIDTH 266 0
DWIDTH 7 0
BBX 7 8 0 6
BITMAP
0600
0580
0020
0A74
2478
5018
6014
1BE4
ENDCHAR
STARTCHAR guillemotleft
ENCODING 171
SWIDTH 755 0
DWIDTH 21 0
BBX 20 14 0 0
BITMAP
0000000004
000000002D
00000142F4
00001B4B80
00007D7D00
0002E2E000
001F5F4000
00B8780000
07D1F00000
1E03FFA500
7D006BFFE0
BFFA5005B4
06AFFD0000
00001A0000
ENDCHAR
STARTCHAR logicalnot
ENCODING 172
SWIDTH 369 0
DWIDTH 10 0
BBX 9 5 1 7
BITMAP
155500
FFFF80
555680
000280
000240
ENDCHAR
STARTCHAR hyphen_
ENCODING 173
SWIDTH 375 0
DWIDTH 11 0
BBX 10 3 0 6
BITMAP
1ABF80
7FAAD0
100000
ENDCHAR
STARTCHAR registered
ENCODING 174
SWIDTH 708 0
DWIDTH 20 0
BBX 18 16 1 0
BITMAP
00BFF90000
03E5BF8000
0A0006F400
2C5AA47C00
36EAAF5E00
B25403C740
E01C03C280
D01D5B41C0
D01FA400D0
E01F4000D0
B00DE000D0
780D7802C0
2E090B5B40
0BE006FD00
01FFFF9000
0016940000
ENDCHAR
STARTCHAR macron
ENCODING 175
SWIDTH 287 0
DWIDTH 8 0
BBX 7 2 1 13
BITMAP
7FF8
FA68
ENDCHAR
STARTCHAR degree
ENCODING 176
SWIDTH 254 0
DWIDTH 7 0
BBX 6 8 0 8
BITMAP
0B80
2590
9020
8020
8020
8060
61D0
1F40
ENDCHAR
STARTCHAR plusminus
ENCODING 177
SWIDTH 459 0
DWIDTH 13 0
BBX 13 13 0 1
BITMAP
00100000
00700000
00340000
00380000
002C0000
007FA900
6FFFFF40
656E0000
001E0000
000E0000
000E0000
05AFFE00
1FEAAA00
ENDCHAR
STARTCHAR twosuperior
ENCODING 178
SWIDTH 296 0
DWIDTH 8 0
BBX 7 9 0 6
BITMAP
01A0
0224
0018
0018
0014
0024
5060
BED0
2AAC
ENDCHAR
STARTCHAR threesuperior
ENCODING 179
SWIDTH 204 0
DWIDTH 6 0
BBX 6 9 0 7
BITMAP
AB00
4180
0240
6E00
1B40
0090
8060
6060
1F80
ENDCHAR
STARTCHAR acute
ENCODING 180
SWIDTH 180 0
DWIDTH 5 0
BBX 5 4 0 11
BITMAP
0740
2E00
7800
9000
ENDCHAR
STARTCHAR mu
ENCODING 181
SWIDTH 501 0
DWIDTH 14 0
BBX 14 15 0 -2
BITMAP
70000000
B0000900
B0000E00
B0000E00
B0000F00
B4000F00
B8000F00
BC002F00
BE007F40
BF41F780
B7EBD3C0
B1BF41D0
B0000090
B0000000
60000000
ENDCHAR
STARTCHAR paragraph
ENCODING 182
SWIDTH 413 0
DWIDTH 12 0
BBX 11 16 0 -1
BITMAP
005540
0BFFE0
2FFFF0
3FFFB4
7FFF74
7FFE34
7FFE34
1AAE38
000E38
000E38
000E78
000E78
000E74
000E34
000A34
000520
ENDCHAR
STARTCHAR periodcentered
ENCODING 183
SWIDTH 212 0
DWIDTH 6 0
BBX 4 3 1 5
BITMAP
3D
BE
7D
ENDCHAR
STARTCHAR cedilla
ENCODING 184
SWIDTH 445 0
DWIDTH 12 0
BBX 8 10 4 -9
BITMAP
1000
7000
7000
3900
0BE4
002D
400D
740D
1FB8
0690
ENDCHAR
STARTCHAR onesuperior
ENCODING 185
SWIDTH 197 0
DWIDTH 6 0
BBX 6 11 -1 6
BITMAP
0020
0030
0070
01E0
07E0
1DD0
74D0
10D0
00C0
0180
0180
ENDCHAR
STARTCHAR ordmasculine
ENCODING 186
SWIDTH 254 0
DWIDTH 7 0
BBX 6 8 0 8
BITMAP
0B80
2590
9020
8020
8020
8060
61D0
1F40
ENDCHAR
STARTCHAR guillemotright
ENCODING 187
SWIDTH 659 0
DWIDTH 18 0
BBX 17 14 1 0
BITMAP
0005000000
E00B800000
B902F90000
1FD06FE400
01FF91BF40
0016F00F40
0001F02E00
0007D0B800
001F46E000
00B81F4000
07D0B80000
2F47D00000
B80E400000
D004000000
ENDCHAR
STARTCHAR onequarter
ENCODING 188
SWIDTH 626 0
DWIDTH 18 0
BBX 16 21 0 -1
BITMAP
00006000
00109000
00609000
00A0C000
01D0C000
07D18000
1DD28000
75C34000
51C30000
01870000
018A2400
014D3000
001C6002
001C5007
0028600E
0034347E
00701FEA
00A0010A
00D00007
00C00006
00800000
ENDCHAR
STARTCHAR onehalf
ENCODING 189
SWIDTH 566 0
DWIDTH 16 0
BBX 15 21 0 -1
BITMAP
00002000
00306000
00706000
00709000
00E0D000
03E1C000
0BE18000
28D28000
B0D34000
41C707D0
01CA0860
018E0430
018D0024
015C0024
00280030
00340070
00700090
00A3E580
00D3FFD0
01C0A5B8
00800000
ENDCHAR
STARTCHAR threequarters
ENCODING 190
SWIDTH 566 0
DWIDTH 16 0
BBX 15 22 0 -2
BITMAP
00001000
00003000
00006000
15006000
65809000
0080D000
0680C000
2F018000
06C29800
00636400
90233000
34372008
0BDA201C
000D3038
000C29B8
001C0F98
00280018
0034001C
0070000C
00A00000
00900000
00800000
ENDCHAR
STARTCHAR questiondown
ENCODING 191
SWIDTH 272 0
DWIDTH 8 0
BBX 8 21 0 0
BITMAP
3800
2800
0000
0000
0000
0000
0000
1940
2FE0
00F0
01E0
03D0
0B80
1E00
2D00
3800
7400
7400
3C01
1FAB
02A9
ENDCHAR
STARTCHAR Agrave
ENCODING 192
SWIDTH 562 0
DWIDTH 16 0
BBX 15 26 0 0
BITMAP
00040000
000B4000
0002D000
00009000
00050000
007FE000
02D07D00
07400F00
0A000740
0D0002C0
0C0001D0
1C0000A0
180000B0
18000070
28000074
28000034
29550078
7FFFFFF8
2C000578
1C00002C
1C00002C
1C00002C
1D00002C
1D00003C
0E000038
0A000034
ENDCHAR
STARTCHAR Aacute
ENCODING 193
SWIDTH 562 0
DWIDTH 16 0
BBX 15 27 0 0
BITMAP
00010000
00070000
002D0000
00B40000
00D00000
00050000
007FE000
02D07D00
07400F00
0A000740
0D0002C0
0C0001D0
1C0000A0
180000B0
18000070
28000074
28000034
29550078
7FFFFFF8
2C000578
1C00002C
1C00002C
1C00002C
1D00002C
1D00003C
0E000038
0A000034
ENDCHAR
STARTCHAR Acircumflex
ENCODING 194
SWIDTH 562 0
DWIDTH 16 0
BBX 15 28 0 0
BITMAP
00050000
000B4000
001FC000
002FE000
00F4F400
02D07800
00050000
007FE000
02D07D00
07400F00
0A000740
0D0002C0
0C0001D0
1C0000A0
180000B0
18000070
28000074
28000034
29550078
7FFFFFF8
2C000578
1C00002C
1C00002C
1C00002C
1D00002C
1D00003C
0E000038
0A000034
ENDCHAR
STARTCHAR Atilde
ENCODING 195
SWIDTH 562 0
DWIDTH 16 0
BBX 15 25 0 0
BITMAP
02F40B00
0B1FBC00
0902E000
05050000
007FE000
02D07D00
07400F00
0A000740
0D0002C0
0C0001D0
1C0000A0
180000B0
18000070
28000074
28000034
29550078
7FFFFFF8
2C000578
1C00002C
1C00002C
1C00002C
1D00002C
1D00003C
0E000038
0A000034
ENDCHAR
STARTCHAR Adieresis
ENCODING 196
SWIDTH 562 0
DWIDTH 16 0
BBX 15 26 0 0
BITMAP
00602400
00F8BC00
00B47800
00000000
00050000
007FE000
02D07D00
07400F00
0A000740
0D0002C0
0C0001D0
1C0000A0
180000B0
18000070
28000074
28000034
29550078
7FFFFFF8
2C000578
1C00002C
1C00002C
1C00002C
1D00002C
1D00003C
0E000038
0A000034
ENDCHAR
STARTCHAR Aring
ENCODING 197
SWIDTH 562 0
DWIDTH 16 0
BBX 15 26 0 0
BITMAP
00064000
002AD000
00506000
00609000
002B8000
007FE400
02D07D00
07400F00
0A000740
0D0002C0
0C0001D0
1C0000A0
180000B0
18000070
28000074
28000034
29550078
7FFFFFF8
2C000578
1C00002C
1C00002C
1C00002C
1D00002C
1D00003C
0E000038
0A000034
ENDCHAR
STARTCHAR AE
ENCODING 198
SWIDTH 960 0
DWIDTH 27 0
BBX 26 22 0 0
BITMAP
00050000000000
007FE000000000
02D07D00000000
07400F00000000
0A000745555500
0D0002CFFFFFD0
0C0001DE555050
1C0000AD000000
180000BD000000
1800007D000000
2800007D000040
2800003E15AFC0
2955007FFFA900
7FFFFFFD000000
2C00057C000000
1C00002C000000
1C00002C000000
1C00002C000000
1D00002C000000
1D00003C001550
0E00003FFFFFF0
0A000036BFFA40
ENDCHAR
STARTCHAR Ccedilla
ENCODING 199
SWIDTH 515 0
DWIDTH 14 0
BBX 14 27 0 -9
BITMAP
0006F800
002FBC00
00B81800
02D02400
07400000
0D000000
18000000
34000000
70000000
70000000
70000000
70000000
70000000
34000000
2C000000
1E005AD0
0BFFFF80
01FE5000
00D00000
00D00000
00740000
001BE000
00007800
00402C00
00E02800
007EB400
00064000
ENDCHAR
STARTCHAR Egrave
ENCODING 200
SWIDTH 524 0
DWIDTH 15 0
BBX 14 23 0 0
BITMAP
00140000
001E0000
000B8000
00018000
00000000
15500000
3FFFFF40
39555580
38000000
38000000
38000000
38000000
3816BF00
7FFFA400
79000000
74000000
70000000
70000000
70000000
70000000
70001540
3EBFFFD0
0BFFEA00
ENDCHAR
STARTCHAR Eacute
ENCODING 201
SWIDTH 524 0
DWIDTH 15 0
BBX 14 23 0 0
BITMAP
00004000
00028000
001E0000
00780000
00600000
15500000
3FFFFF40
39555580
38000000
38000000
38000000
38000000
3816BF00
7FFFA400
79000000
74000000
70000000
70000000
70000000
70000000
70001540
3EBFFFD0
0BFFEA00
ENDCHAR
STARTCHAR Ecircumflex
ENCODING 202
SWIDTH 524 0
DWIDTH 15 0
BBX 14 25 0 0
BITMAP
00010000
00078000
000BD000
001FF400
0078BC00
01E02C00
00000400
15500000
3FFFFF40
39555580
38000000
38000000
38000000
38000000
3816BF00
7FFFA400
79000000
74000000
70000000
70000000
70000000
70000000
70001540
3EBFFFD0
0BFFEA00
ENDCHAR
STARTCHAR Edieresis
ENCODING 203
SWIDTH 524 0
DWIDTH 15 0
BBX 14 22 0 0
BITMAP
00606000
01F4F800
00A0B400
00000000
15500000
3FFFFF40
39555580
38000000
38000000
38000000
38000000
3816BF00
7FFFA400
79000000
74000000
70000000
70000000
70000000
70000000
70001540
3EBFFFD0
0BFFEA00
ENDCHAR
STARTCHAR Igrave
ENCODING 204
SWIDTH 167 0
DWIDTH 5 0
BBX 6 22 -1 0
BITMAP
5000
7800
1F00
0600
0000
0000
1000
2800
1C00
0D00
0E00
0B00
0700
0740
0340
0380
0380
02C0
02C0
02C0
01D0
00C0
ENDCHAR
STARTCHAR Iacute
ENCODING 205
SWIDTH 167 0
DWIDTH 5 0
BBX 6 20 -1 0
BITMAP
0740
1E00
7800
A000
1000
2800
1C00
0D00
0E00
0B00
0700
0740
0340
0380
0380
02C0
02C0
02C0
01D0
00C0
ENDCHAR
STARTCHAR Icircumflex
ENCODING 206
SWIDTH 167 0
DWIDTH 5 0
BBX 9 25 -2 0
BITMAP
004000
01E000
02F800
07FD00
1E2F00
780B40
000100
000000
000000
040000
0A0000
070000
034000
038000
02C000
01C000
01D000
00D000
00E000
00E000
00B000
00B000
00B000
007400
003000
ENDCHAR
STARTCHAR Idieresis
ENCODING 207
SWIDTH 167 0
DWIDTH 5 0
BBX 8 19 -3 0
BITMAP
6424
B87D
7478
0100
0280
01C0
00D0
00E0
00B0
0070
0074
0034
0038
0038
002C
002C
002C
001D
000C
ENDCHAR
STARTCHAR Eth
ENCODING 208
SWIDTH 741 0
DWIDTH 21 0
BBX 20 19 0 -1
BITMAP
016A500000
2FFFFE4000
6500FBE400
0000F07E00
0000B00B80
0000B001E0
0000740078
000075502D
0006FFFC0E
000BB9580A
000028000B
00002C000B
00002C000E
00002C002D
00002C007C
00010402F4
0003E96FD0
0001BFFD00
0000054000
ENDCHAR
STARTCHAR Ntilde
ENCODING 209
SWIDTH 609 0
DWIDTH 17 0
BBX 17 19 0 0
BITMAP
007E41D000
00E1EB8000
00C06D0000
0080000000
2400000000
2800009000
2C0000F400
2D0000B800
2E00003C00
2F00002D00
2F40000E00
3FC0000B00
39D0000740
34B0000740
3438000740
381E000F00
7807D46D00
7801FFF800
34001A9000
ENDCHAR
STARTCHAR Ograve
ENCODING 210
SWIDTH 609 0
DWIDTH 17 0
BBX 17 20 0 0
BITMAP
0001000000
0002D00000
0000B40000
0000280000
0000000000
0000000000
0065000000
07FFE00000
1E45BE0000
38001BD000
700001F400
7000007C00
7000001D00
7000000B00
7400000700
3C00000740
1E00000B00
0BD0007D00
02FE6BE400
002BF94000
ENDCHAR
STARTCHAR Oacute
ENCODING 211
SWIDTH 609 0
DWIDTH 17 0
BBX 17 20 0 0
BITMAP
0000100000
0000B00000
0002D00000
000F400000
000C000000
0000000000
0065000000
07FFE00000
1E45BE0000
38001BD000
700001F400
7000007C00
7000001D00
7000000B00
7400000700
3C00000740
1E00000B00
0BD0007D00
02FE6BE400
002BF94000
ENDCHAR
STARTCHAR Ocircumflex
ENCODING 212
SWIDTH 609 0
DWIDTH 17 0
BBX 17 22 0 0
BITMAP
0004000000
002D000000
003F400000
00BFC00000
02D2E00000
0B80B00000
0000100000
0000000000
0065000000
07FFE00000
1E45BE0000
38001BD000
700001F400
7000007C00
7000001D00
7000000B00
7400000700
3C00000740
1E00000B00
0BD0007D00
02FE6BE400
002BF94000
ENDCHAR
STARTCHAR Otilde
ENCODING 213
SWIDTH 609 0
DWIDTH 17 0
BBX 17 18 0 0
BITMAP
02F80B0000
0B1BAC0000
0A01E00000
0500000000
0065000000
07FFE00000
1E45BE0000
38001BD000
700001F400
7000007C00
7000001D00
7000000B00
7400000700
3C00000740
1E00000B00
0BD0007D00
02FE6BE400
002BF94000
ENDCHAR
STARTCHAR Odieresis
ENCODING 214
SWIDTH 609 0
DWIDTH 17 0
BBX 17 19 0 0
BITMAP
0018090000
003E2F0000
002D1E0000
0000000000
0000000000
0065000000
07FFE00000
1E45BE0000
38001BD000
700001F400
7000007C00
7000001D00
7000000B00
7400000700
3C00000740
1E00000B00
0BD0007D00
02FE6BE400
002BF94000
ENDCHAR
STARTCHAR multiply
ENCODING 215
SWIDTH 448 0
DWIDTH 13 0
BBX 9 7 1 2
BITMAP
740240
2D1F40
0FF800
03E000
03F400
0E2D00
2C0E00
ENDCHAR
STARTCHAR Oslash
ENCODING 216
SWIDTH 609 0
DWIDTH 17 0
BBX 17 21 0 -3
BITMAP
0000090000
00000D0000
00001C0000
00002C0000
0065380000
07FFF40000
1E45FE0000
3800EBD000
7001D1F400
7002C07C00
7003801D00
7007400B00
740B000700
3C0E000740
1E1D000B00
0BFC007D00
02FE6BE400
00BFF94000
01E0000000
01D0000000
0180000000
ENDCHAR
STARTCHAR Ugrave
ENCODING 217
SWIDTH 571 0
DWIDTH 16 0
BBX 16 20 0 0
BITMAP
00050000
00038000
0001F000
00006400
00000000
1D000140
380002C0
300002C0
700002C0
700002D0
700001D0
340000D0
340000E0
280000B0
2C0000B4
1D0001F8
0B0007FC
07806E6D
02FFF40E
007F4000
ENDCHAR
STARTCHAR Uacute
ENCODING 218
SWIDTH 571 0
DWIDTH 16 0
BBX 16 19 0 0
BITMAP
0001D000
00078000
001E0000
00280000
1D000140
380002C0
300002C0
700002C0
700002D0
700001D0
340000D0
340000E0
280000B0
2C0000B4
1D0001F8
0B0007FC
07806E6D
02FFF40E
007F4000
ENDCHAR
STARTCHAR Ucircumflex
ENCODING 219
SWIDTH 571 0
DWIDTH 16 0
BBX 16 25 0 0
BITMAP
00014000
0002D000
0003F400
000BFC00
002D2E00
00B40E00
00000100
00000000
00000000
00000000
1D000140
380002C0
300002C0
700002C0
700002D0
700001D0
340000D0
340000E0
280000B0
2C0000B4
1D0001F8
0B0007FC
07806E6D
02FFF40E
007F4000
ENDCHAR
STARTCHAR Udieresis
ENCODING 220
SWIDTH 571 0
DWIDTH 16 0
BBX 16 19 0 0
BITMAP
00241800
007C3E00
00782D00
00000000
1D000140
380002C0
300002C0
700002C0
700002D0
700001D0
340000D0
340000E0
280000B0
2C0000B4
1D0001F8
0B0007FC
07806E6D
02FFF40E
007F4000
ENDCHAR
STARTCHAR Yacute
ENCODING 221
SWIDTH 403 0
DWIDTH 11 0
BBX 11 24 0 -1
BITMAP
0001C0
000B40
002D00
003400
000000
600000
700018
780028
2D0038
0F4074
03D0F0
00BEE0
001FD0
0003C0
000380
000740
000A00
000E00
001D00
001C00
001C00
001C00
001C00
000400
ENDCHAR
STARTCHAR Thorn
ENCODING 222
SWIDTH 497 0
DWIDTH 14 0
BBX 13 21 1 -4
BITMAP
B0000000
B4000000
B4000000
B0000000
B0000000
B0000000
B0000000
75500000
7FFF8000
7D16F400
78006D00
74000F00
74000740
78000740
3E001F40
3FEABE00
35BFE400
34000000
38000000
38000000
28000000
ENDCHAR
STARTCHAR germandbls
ENCODING 223
SWIDTH 590 0
DWIDTH 17 0
BBX 15 24 1 -4
BITMAP
15400000
BFF80000
FA6F4000
E002D000
E000D000
E000D000
F0028000
B06F0000
B1FE0000
707FE000
7406FD00
34001F40
340002D0
340000B4
28000038
2800003C
2800007C
281556F4
282FFE40
2C054000
2C000000
3C000000
3C000000
18000000
ENDCHAR
STARTCHAR agrave
ENCODING 224
SWIDTH 505 0
DWIDTH 14 0
BBX 14 19 0 0
BITMAP
00100000
003D0000
000F4000
00024000
00000000
007E0000
00EBD000
0000B400
00002D00
00000E00
00694B40
0BFFFF80
2E402FC0
740007C0
700002D0
700000D0
3D000540
0BFFFF90
01AFE400
ENDCHAR
STARTCHAR aacute
ENCODING 225
SWIDTH 505 0
DWIDTH 14 0
BBX 14 19 0 0
BITMAP
00068000
001E0000
00780000
00A00000
00000000
007E0000
00EBD000
0000B400
00002D00
00000E00
00694B40
0BFFFF80
2E402FC0
740007C0
700002D0
700000D0
3D000540
0BFFFF90
01AFE400
ENDCHAR
STARTCHAR acircumflex
ENCODING 226
SWIDTH 505 0
DWIDTH 14 0
BBX 14 21 0 0
BITMAP
00010000
000B4000
000FD000
002FF000
00B4B800
02D02C00
00000400
007E0000
00EBD000
0000B400
00002D00
00000E00
00694B40
0BFFFF80
2E402FC0
740007C0
700002D0
700000D0
3D000540
0BFFFF90
01AFE400
ENDCHAR
STARTCHAR atilde
ENCODING 227
SWIDTH 505 0
DWIDTH 14 0
BBX 14 19 0 0
BITMAP
07E40A00
0E1EB800
0D02E000
04000000
00000000
007E0000
00EBD000
0000B400
00002D00
00000E00
00694B40
0BFFFF80
2E402FC0
740007C0
700002D0
700000D0
3D000540
0BFFFF90
01AFE400
ENDCHAR
STARTCHAR adieresis
ENCODING 228
SWIDTH 505 0
DWIDTH 14 0
BBX 14 18 0 0
BITMAP
00A06000
01F4F800
00E0B400
00000000
007E0000
00EBD000
0000B400
00002D00
00000E00
00694B40
0BFFFF80
2E402FC0
740007C0
700002D0
700000D0
3D000540
0BFFFF90
01AFE400
ENDCHAR
STARTCHAR aring
ENCODING 229
SWIDTH 505 0
DWIDTH 14 0
BBX 14 19 0 0
BITMAP
00010000
002B8000
00609000
00509000
0036C000
007F4000
00EBD000
0000B400
00002D00
00000E00
00694B40
0BFFFF80
2E402FC0
740007C0
700002D0
700000D0
3D000540
0BFFFF90
01AFE400
ENDCHAR
STARTCHAR ae
ENCODING 230
SWIDTH 881 0
DWIDTH 25 0
BBX 24 15 0 -1
BITMAP
007E0001A800
00EBD01FAF00
0000B4780380
00002DE002C0
00000FD001C0
00694BC00380
0BFFFFC01F40
2E402FEAF900
740007DA5000
700002D00000
700000E00000
3D0005B80000
0BFFFFAF9415
01AFE407FFFD
000000005A50
ENDCHAR
STARTCHAR ccedilla
ENCODING 231
SWIDTH 449 0
DWIDTH 13 0
BBX 12 22 0 -9
BITMAP
001500
01FFD0
0B41B0
1D0030
380010
740000
700000
700000
740000
380000
2E4000
0BFAA9
01FFF9
00D000
00D000
007900
001AE0
000078
004028
00B428
003FE0
000540
ENDCHAR
STARTCHAR egrave
ENCODING 232
SWIDTH 515 0
DWIDTH 14 0
BBX 14 19 0 0
BITMAP
00500000
00B80000
002E0000
00060000
00150000
01FFC000
0B41E000
1D007000
38003400
74007000
7002E000
756F8000
77F90000
74000000
38000000
1D000000
0B900000
02FFAFD0
002BF900
ENDCHAR
STARTCHAR eacute
ENCODING 233
SWIDTH 515 0
DWIDTH 14 0
BBX 14 19 0 0
BITMAP
00074000
002D0000
00B40000
00900000
00150000
01FFC000
0B41E000
1D007000
38003400
74007000
7002E000
756F8000
77F90000
74000000
38000000
1D000000
0B900000
02FFAFD0
002BF900
ENDCHAR
STARTCHAR ecircumflex
ENCODING 234
SWIDTH 515 0
DWIDTH 14 0
BBX 14 21 0 0
BITMAP
00010000
00078000
000FD000
002FF400
00B8B800
01E02C00
00550400
01FFC000
0B41E000
1D007000
38003400
74007000
7002E000
756F8000
77F90000
74000000
38000000
1D000000
0B900000
02FFAFD0
002BF900
ENDCHAR
STARTCHAR edieresis
ENCODING 235
SWIDTH 515 0
DWIDTH 14 0
BBX 14 18 0 0
BITMAP
01909000
03E1F000
02D1E000
00150000
01FFC000
0B41E000
1D007000
38003400
74007000
7002E000
756F8000
77F90000
74000000
38000000
1D000000
0B900000
02FFAFD0
002BF900
ENDCHAR
STARTCHAR igrave
ENCODING 236
SWIDTH 174 0
DWIDTH 5 0
BBX 5 17 0 0
BITMAP
5000
3C00
1F00
0200
0400
1C00
1C00
1C00
1D00
1D00
0E00
0E00
0F00
0F40
0B40
0740
0300
ENDCHAR
STARTCHAR iacute
ENCODING 237
SWIDTH 174 0
DWIDTH 5 0
BBX 6 18 -1 0
BITMAP
0040
0280
1F00
3800
6000
0100
0700
0700
0700
0740
0740
0380
0380
03C0
03D0
02D0
01D0
00C0
ENDCHAR
STARTCHAR icircumflex
ENCODING 238
SWIDTH 174 0
DWIDTH 5 0
BBX 9 21 -2 0
BITMAP
004000
01E000
02F800
07FD00
1E1F00
780B40
000100
000000
004000
01C000
01C000
01C000
01D000
01D000
00E000
00E000
00F000
00F400
00B400
007400
003000
ENDCHAR
STARTCHAR idieresis
ENCODING 239
SWIDTH 174 0
DWIDTH 5 0
BBX 8 17 -2 0
BITMAP
1404
3D2E
7D2E
1404
0040
01C0
01C0
01C0
01D0
01D0
00E0
00E0
00F0
00F4
00B4
0074
0030
ENDCHAR
STARTCHAR eth
ENCODING 240
SWIDTH 407 0
DWIDTH 11 0
BBX 11 16 0 -1
BITMAP
2A4000
7BF404
107D7C
001FF8
01FED0
01E0E0
000074
07FFF8
1E01B8
38002C
74001C
74002C
380078
1F96F0
07FFD0
001500
ENDCHAR
STARTCHAR ntilde
ENCODING 241
SWIDTH 459 0
DWIDTH 13 0
BBX 13 17 0 0
BITMAP
1F907400
387AE000
301B8000
20000000
00000000
006F8000
26EAE000
7F40B400
7D002C00
78001D00
38000E00
38000B00
3C000B40
2C000740
1D000740
0E000740
06000700
ENDCHAR
STARTCHAR ograve
ENCODING 242
SWIDTH 487 0
DWIDTH 14 0
BBX 13 16 0 0
BITMAP
00140000
001E0000
00078000
00018000
006FE000
02FAFC00
0E402E00
28000B40
74000380
70000280
70000380
70000780
38001F40
2E007E00
0BEBF800
01BF9000
ENDCHAR
STARTCHAR oacute
ENCODING 243
SWIDTH 487 0
DWIDTH 14 0
BBX 13 17 0 0
BITMAP
00074000
001E0000
00780000
00A00000
00000000
006FE000
02FAFC00
0E402E00
28000B40
74000380
70000280
70000380
70000780
38001F40
2E007E00
0BEBF800
01BF9000
ENDCHAR
STARTCHAR ocircumflex
ENCODING 244
SWIDTH 487 0
DWIDTH 14 0
BBX 13 19 0 0
BITMAP
00040000
000F0000
001F8000
007FE000
01F1F400
03C07400
00001000
006FE000
02FAFC00
0E402E00
28000B40
74000380
70000280
70000380
70000780
38001F40
2E007E00
0BEBF800
01BF9000
ENDCHAR
STARTCHAR otilde
ENCODING 245
SWIDTH 487 0
DWIDTH 14 0
BBX 13 15 0 0
BITMAP
03F40A00
0A1EB800
0D02E000
056FE000
02FAFC00
0E402E00
28000B40
74000380
70000280
70000380
70000780
38001F40
2E007E00
0BEBF800
01BF9000
ENDCHAR
STARTCHAR odieresis
ENCODING 246
SWIDTH 487 0
DWIDTH 14 0
BBX 13 15 0 0
BITMAP
00906000
02F1F400
01E0E000
006FE000
02FAFC00
0E402E00
28000B40
74000380
70000280
70000380
70000780
38001F40
2E007E00
0BEBF800
01BF9000
ENDCHAR
STARTCHAR divide
ENCODING 247
SWIDTH 335 0
DWIDTH 9 0
BBX 7 8 1 2
BITMAP
0100
0380
0140
1554
BFFC
5000
0100
0240
ENDCHAR
STARTCHAR oslash
ENCODING 248
SWIDTH 487 0
DWIDTH 14 0
BBX 13 13 0 0
BITMAP
00002800
0016B800
01FFF800
0B91FD00
2D03CB00
340B4380
701E0280
703C0280
70B40780
39E00F40
2FC07E00
0FEBF800
1EBF9000
ENDCHAR
STARTCHAR ugrave
ENCODING 249
SWIDTH 501 0
DWIDTH 14 0
BBX 14 19 0 0
BITMAP
00400000
00F00000
007D0000
00090000
00000000
00000000
70000000
B0000900
B0000E00
B0000E00
70000F00
74000F00
38000F00
2C002F00
1D007F40
0B41E780
03EB82C0
00BE01D0
00000090
ENDCHAR
STARTCHAR uacute
ENCODING 250
SWIDTH 501 0
DWIDTH 14 0
BBX 14 19 0 0
BITMAP
00068000
001E0000
00780000
00600000
00000000
00000000
70000000
B0000900
B0000E00
B0000E00
70000F00
74000F00
38000F00
2C002F00
1D007F40
0B41E780
03EB82C0
00BE01D0
00000090
ENDCHAR
STARTCHAR ucircumflex
ENCODING 251
SWIDTH 501 0
DWIDTH 14 0
BBX 14 21 0 0
BITMAP
00050000
000B4000
000FD000
002FF000
00B4B800
02D03800
00000400
00000000
70000000
B0000900
B0000E00
B0000E00
70000F00
74000F00
38000F00
2C002F00
1D007F40
0B41E780
03EB82C0
00BE01D0
00000090
ENDCHAR
STARTCHAR udieresis
ENCODING 252
SWIDTH 501 0
DWIDTH 14 0
BBX 14 17 0 0
BITMAP
01809000
03D2F000
02D1D000
00000000
70000000
B0000900
B0000E00
B0000E00
70000F00
74000F00
38000F00
2C002F00
1D007F40
0B41E780
03EB82C0
00BE01D0
00000090
ENDCHAR
STARTCHAR yacute
ENCODING 253
SWIDTH 487 0
DWIDTH 14 0
BBX 13 32 0 -14
BITMAP
00074000
002E0000
00780000
00900000
00000000
00000100
60000200
A0000700
70000740
70000340
74000380
38000380
2C000380
1D0007C0
0B001FC0
03D1BFC0
00BFD1C0
001500C0
000000C0
000000C0
000001C0
000001C0
000001C0
000002C0
000002C0
10000280
28000340
1E000740
0B800A00
02F46D00
007FF800
00069000
ENDCHAR
STARTCHAR thorn
ENCODING 254
SWIDTH 520 0
DWIDTH 15 0
BBX 14 19 0 -5
BITMAP
28000000
28000000
28000000
34055000
35FFFE00
3FE45F80
3E0002D0
3C0000E0
380000B0
380000B0
3F9517E0
3FFFFF80
78555400
78000000
78000000
78000000
78000000
38000000
38000000
ENDCHAR
STARTCHAR ydieresis
ENCODING 255
SWIDTH 487 0
DWIDTH 14 0
BBX 13 31 0 -14
BITMAP
01809000
03E2F000
02D1E000
00000000
00000100
60000200
A0000700
70000740
70000340
74000380
38000380
2C000380
1D0007C0
0B001FC0
03D1BFC0
00BFD1C0
001500C0
000000C0
000000C0
000001C0
000001C0
000001C0
000002C0
000002C0
10000280
28000340
1E000740
0B800A00
02F46D00
007FF800
00069000
ENDCHAR
STARTCHAR Amacron
ENCODING 256
SWIDTH 562 0
DWIDTH 16 0
BBX 15 25 0 0
BITMAP
01BFF400
02E9A400
00000000
00050000
007FE000
02D07D00
07400F00
0A000740
0D0002C0
0C0001D0
1C0000A0
180000B0
18000070
28000074
28000034
29550078
7FFFFFF8
2C000578
1C00002C
1C00002C
1C00002C
1D00002C
1D00003C
0E000038
0A000034
ENDCHAR
STARTCHAR amacron
ENCODING 257
SWIDTH 505 0
DWIDTH 14 0
BBX 14 18 0 0
BITMAP
01FFF000
02E9A400
00000000
00000000
007E0000
00EBD000
0000B400
00002D00
00000E00
00694B40
0BFFFF80
2E402FC0
740007C0
700002D0
700000D0
3D000540
0BFFFF90
01AFE400
ENDCHAR
STARTCHAR Abreve
ENCODING 258
SWIDTH 562 0
DWIDTH 16 0
BBX 15 26 0 0
BITMAP
00142400
001EB400
00069000
00000000
00050000
007FE000
02D07D00
07400F00
0A000740
0D0002C0
0C0001D0
1C0000A0
180000B0
18000070
28000074
28000034
29550078
7FFFFFF8
2C000578
1C00002C
1C00002C
1C00002C
1D00002C
1D00003C
0E000038
0A000034
ENDCHAR
STARTCHAR abreve
ENCODING 259
SWIDTH 505 0
DWIDTH 14 0
BBX 14 18 0 0
BITMAP
0080C000
00A68000
002A0000
00000000
007E0000
00EBD000
0000B400
00002D00
00000E00
00694B40
0BFFFF80
2E402FC0
740007C0
700002D0
700000D0
3D000540
0BFFFF90
01AFE400
ENDCHAR
STARTCHAR Aogonek
ENCODING 260
SWIDTH 562 0
DWIDTH 16 0
BBX 16 26 0 -4
BITMAP
00050000
007FE000
02D07D00
07400F00
0A000740
0D0002C0
0C0001D0
1C0000A0
180000B0
18000070
28000074
28000034
29550078
7FFFFFF8
2C000578
1C00002C
1C00002C
1C00002C
1D00002C
1D00003C
0E000038
0A0002F4
00000740
00000A00
00000B40
000002FD
ENDCHAR
STARTCHAR aogonek
ENCODING 261
SWIDTH 505 0
DWIDTH 14 0
BBX 14 18 0 -4
BITMAP
007E0000
00EBD000
0000B400
00002D00
00000E00
00694B40
0BFFFF80
2E402FC0
740007C0
700002D0
700000D0
3D000540
0BFFFF90
01AFF400
0001D000
0001D000
0000BE80
00000540
ENDCHAR
STARTCHAR Cacute
ENCODING 262
SWIDTH 515 0
DWIDTH 14 0
BBX 14 24 0 0
BITMAP
00001000
0000B000
0002D000
000B4000
000D0000
00000000
0006F800
002FBC00
00B81800
02D02400
07400000
0D000000
18000000
34000000
70000000
70000000
70000000
70000000
70000000
34000000
2C000000
1E005AD0
0BFFFF80
01FE5000
ENDCHAR
STARTCHAR cacute
ENCODING 263
SWIDTH 449 0
DWIDTH 13 0
BBX 12 19 0 0
BITMAP
000040
0002C0
001F40
003C00
006000
000000
000000
00BF80
0796E0
1E0070
380020
740000
700000
700000
740000
380000
2E4000
0BFAA9
01BFF9
ENDCHAR
STARTCHAR Ccircumflex
ENCODING 264
SWIDTH 515 0
DWIDTH 14 0
BBX 14 25 0 0
BITMAP
00010000
00078000
000FD000
002FF400
00B8B800
01E02C00
00000400
0006F800
002FBC00
00B81800
02D02400
07400000
0D000000
18000000
34000000
70000000
70000000
70000000
70000000
70000000
34000000
2C000000
1E005AD0
0BFFFF80
01FE5000
ENDCHAR
STARTCHAR ccircumflex
ENCODING 265
SWIDTH 449 0
DWIDTH 13 0
BBX 12 21 0 0
BITMAP
000400
001E00
002F40
007FD0
02E2F0
0780B0
000010
000000
000000
00BF80
0796E0
1E0070
380020
740000
700000
700000
740000
380000
2E4000
0BFAA9
01BFF9
ENDCHAR
STARTCHAR Cdotaccent
ENCODING 266
SWIDTH 515 0
DWIDTH 14 0
BBX 14 23 0 0
BITMAP
00010000
00074000
00034000
00000000
00000000
0006F800
002FBC00
00B81800
02D02400
07400000
0D000000
18000000
34000000
70000000
70000000
70000000
70000000
70000000
34000000
2C000000
1E005AD0
0BFFFF80
01FE5000
ENDCHAR
STARTCHAR cdotaccent
ENCODING 267
SWIDTH 449 0
DWIDTH 13 0
BBX 12 16 0 0
BITMAP
001400
002C00
001C00
000000
00BF80
0796E0
1E0070
380020
740000
700000
700000
740000
380000
2E4000
0BFAA9
01BFF9
ENDCHAR
STARTCHAR Ccaron
ENCODING 268
SWIDTH 515 0
DWIDTH 14 0
BBX 14 23 0 0
BITMAP
00290B00
000BBD00
0001E400
00004000
00000000
0006F800
002FBC00
00B81800
02D02400
07400000
0D000000
18000000
34000000
70000000
70000000
70000000
70000000
70000000
34000000
2C000000
1E005AD0
0BFFFF80
01FE5000
ENDCHAR
STARTCHAR ccaron
ENCODING 269
SWIDTH 449 0
DWIDTH 13 0
BBX 12 17 0 0
BITMAP
0680B0
00BBD0
002E00
000400
000000
00BF80
0796E0
1E0070
380020
740000
700000
700000
740000
380000
2E4000
0BFAA9
01BFF9
ENDCHAR
STARTCHAR Dcaron
ENCODING 270
SWIDTH 741 0
DWIDTH 21 0
BBX 20 22 0 -1
BITMAP
000280B000
0000BBD000
00001E0000
016A540000
2FFFFE4000
6500FBE400
0000B07E00
0000B00B80
00007001E0
0000740078
000034002D
000038000E
000038000A
00002C000B
00002C000B
00002C000E
00002C002D
00001C007C
00010402F4
0003E96FD0
0001BFFD00
0000054000
ENDCHAR
STARTCHAR dcaron
ENCODING 271
SWIDTH 582 0
DWIDTH 16 0
BBX 16 22 0 0
BITMAP
00000004
0000000C
0000240D
00002C0E
00002E0E
00001F0A
00000F46
00000B41
00000780
02F90780
0BFFD3C0
2F41FBC0
3D002FC0
78000BD0
740007D0
740007D0
74000BD0
78002FE0
3C007EE0
1E06F0E0
0BFF8060
02F90000
ENDCHAR
STARTCHAR Dcroat
ENCODING 272
SWIDTH 741 0
DWIDTH 21 0
BBX 20 19 0 -1
BITMAP
016A500000
2FFFFE4000
6500FBE400
0000B07E00
0000B00B80
00007001E0
0000740078
000034002D
00017A400E
000FFFC00A
00096C400B
00002C000B
00002C000E
00002C002D
00001C007C
00010402F4
0003E96FD0
0001BFFD00
0000054000
ENDCHAR
STARTCHAR dcroat
ENCODING 273
SWIDTH 524 0
DWIDTH 15 0
BBX 15 21 0 0
BITMAP
00001000
00002800
00002D00
00002E00
00016F90
000BFFF8
00095B90
00000B80
01A40780
0BFF43C0
1FABF7C0
2E007FD0
3C000BD0
740007D0
740007D0
74000BD0
78001FE0
3C007EE0
1E02F0E0
0BFF8060
02F90000
ENDCHAR
STARTCHAR Emacron
ENCODING 274
SWIDTH 524 0
DWIDTH 15 0
BBX 14 21 0 0
BITMAP
00BFF400
01E9A400
00000000
15500000
3FFFFF40
39555580
38000000
38000000
38000000
38000000
3816BF00
7FFFA400
79000000
74000000
70000000
70000000
70000000
70000000
70001540
3EBFFFD0
0BFFEA00
ENDCHAR
STARTCHAR emacron
ENCODING 275
SWIDTH 515 0
DWIDTH 14 0
BBX 14 18 0 0
BITMAP
00BFF400
01E9A400
00000000
00150000
01FFC000
0B41E000
1D007000
38003400
74007000
7002E000
756F8000
77F90000
74000000
38000000
1D000000
0B900000
02FFAFD0
002BF900
ENDCHAR
STARTCHAR Ebreve
ENCODING 276
SWIDTH 524 0
DWIDTH 15 0
BBX 14 22 0 0
BITMAP
0050A000
007AD000
001A4000
00000000
15500000
3FFFFF40
39555580
38000000
38000000
38000000
38000000
3816BF00
7FFFA400
79000000
74000000
70000000
70000000
70000000
70000000
70001540
3EBFFFD0
0BFFEA00
ENDCHAR
STARTCHAR ebreve
ENCODING 277
SWIDTH 515 0
DWIDTH 14 0
BBX 14 19 0 0
BITMAP
00102400
0019B000
00068000
00000000
00150000
01FFC000
0B41E000
1D007000
38003400
74007000
7002E000
756F8000
77F90000
74000000
38000000
1D000000
0B900000
02FFAFD0
002BF900
ENDCHAR
STARTCHAR Edotaccent
ENCODING 278
SWIDTH 524 0
DWIDTH 15 0
BBX 14 22 0 0
BITMAP
00040000
000E0000
000A0000
00000000
15500000
3FFFFF40
39555580
38000000
38000000
38000000
38000000
3816BF00
7FFFA400
79000000
74000000
70000000
70000000
70000000
70000000
70001540
3EBFFFD0
0BFFEA00
ENDCHAR
STARTCHAR edotaccent
ENCODING 279
SWIDTH 515 0
DWIDTH 14 0
BBX 14 19 0 0
BITMAP
00140000
002C0000
001C0000
00000000
00150000
01FFC000
0B41E000
1D007000
38003400
74007000
7002E000
756F8000
77F90000
74000000
38000000
1D000000
0B900000
02FFAFD0
002BF900
ENDCHAR
STARTCHAR Eogonek
ENCODING 280
SWIDTH 524 0
DWIDTH 15 0
BBX 14 22 0 -4
BITMAP
15500000
3FFFFF40
39555580
38000000
38000000
38000000
38000000
3816BF00
7FFFA400
79000000
74000000
70000000
70000000
70000000
70000000
70001540
3EBFFFD0
0BFFFE00
0001D000
00028000
0002D000
0000AF80
ENDCHAR
STARTCHAR eogonek
ENCODING 281
SWIDTH 515 0
DWIDTH 14 0
BBX 14 19 0 -4
BITMAP
00150000
01FFC000
0B41E000
1D007000
38003400
74007000
7002E000
756F8000
77F90000
74000000
38000000
1D000000
0B900000
02FFAFD0
002BF900
0002D000
00034000
0003D000
0000AF40
ENDCHAR
STARTCHAR Ecaron
ENCODING 282
SWIDTH 524 0
DWIDTH 15 0
BBX 14 21 0 0
BITMAP
00A02C00
002EF400
00078000
15550000
3FFFFF40
39555580
38000000
38000000
38000000
38000000
3816BF00
7FFFA400
79000000
74000000
70000000
70000000
70000000
70000000
70001540
3EBFFFD0
0BFFEA00
ENDCHAR
STARTCHAR ecaron
ENCODING 283
SWIDTH 515 0
DWIDTH 14 0
BBX 14 19 0 0
BITMAP
01E02C00
002EF400
000B8000
00010000
00150000
01FFC000
0B41E000
1D007000
38003400
74007000
7002E000
756F8000
77F90000
74000000
38000000
1D000000
0B900000
02FFAFD0
002BF900
ENDCHAR
STARTCHAR Gcircumflex
ENCODING 284
SWIDTH 571 0
DWIDTH 16 0
BBX 15 25 1 -2
BITMAP
00001000
00007800
0000BD00
0001FF40
000B8BC0
001E02C0
00000040
00000000
00001A40
0006FFD0
006E4050
01E00000
0B400000
2D000000
74040000
B00FBFD0
E006AAE0
D00000A0
D00000A0
A00001E0
780007E0
2FEAFEE0
06A940E0
000000B4
00000074
ENDCHAR
STARTCHAR gcircumflex
ENCODING 285
SWIDTH 366 0
DWIDTH 10 0
BBX 15 35 -4 -14
BITMAP
00001000
00007400
0000FD00
0002FF00
000B8B80
001E02C0
00000040
00000000
00000000
00001400
0001FF00
00078380
001E01C0
002C01D0
003401E0
007001E0
007002E0
007403E0
002E6FF0
000BFAF0
000150F0
000000B0
000000B0
000000B0
00000070
00000070
00000074
60000074
A0000070
B00000B0
390000E0
1F9001D0
02FE47C0
006FFF40
0001A900
ENDCHAR
STARTCHAR Gbreve
ENCODING 286
SWIDTH 571 0
DWIDTH 16 0
BBX 15 20 1 -2
BITMAP
00509000
007AD000
001A4000
00001A40
0006FFD0
006E4050
01E00000
0B400000
2D000000
74040000
B00FBFD0
E006AAE0
D00000A0
D00000A0
A00001E0
780007E0
2FEAFEE0
06A940E0
000000B4
00000074
ENDCHAR
STARTCHAR gbreve
ENCODING 287
SWIDTH 366 0
DWIDTH 10 0
BBX 15 29 -4 -14
BITMAP
00050A00
0007AD00
0001A400
00001400
0001FF00
00078380
001E01C0
002C01D0
003401E0
007001E0
007002E0
007403E0
002E6FF0
000BFAF0
000150F0
000000B0
000000B0
000000B0
00000070
00000070
00000074
60000074
A0000070
B00000B0
390000E0
1F9001D0
02FE47C0
006FFF40
0001A900
ENDCHAR
STARTCHAR Gdotaccent
ENCODING 288
SWIDTH 571 0
DWIDTH 16 0
BBX 15 20 1 -2
BITMAP
00004000
0000E000
0000E000
00001A40
0006FFD0
006E4050
01E00000
0B400000
2D000000
74040000
B00FBFD0
E006AAE0
D00000A0
D00000A0
A00001E0
780007E0
2FEAFEE0
06A940E0
000000B4
00000074
ENDCHAR
STARTCHAR gdotaccent
ENCODING 289
SWIDTH 366 0
DWIDTH 10 0
BBX 15 30 -4 -14
BITMAP
00004000
0000E000
0000A000
00000000
00001400
0001FF00
00078380
001E01C0
002C01D0
003401E0
007001E0
007002E0
007403E0
002E6FF0
000BFAF0
000150F0
000000B0
000000B0
000000B0
00000070
00000070
00000074
60000074
A0000070
B00000B0
390000E0
1F9001D0
02FE47C0
006FFF40
0001A900
ENDCHAR
STARTCHAR Gcommaaccent
ENCODING 290
SWIDTH 571 0
DWIDTH 16 0
BBX 15 24 1 -9
BITMAP
00001A40
0006FFD0
006E4050
01E00000
0B400000
2D000000
74040000
B00FBFD0
E006AAE0
D00000A0
D00000A0
A00001E0
780007E0
2FEAFEE0
06A940E0
000000B4
00000074
00000000
000E0000
000F0000
000B0000
000B0000
001E0000
00080000
ENDCHAR
STARTCHAR gcommaaccent
ENCODING 291
SWIDTH 366 0
DWIDTH 10 0
BBX 15 39 -4 -14
BITMAP
00004000
00009000
0000A000
0000B000
0000B000
00007000
00007000
00001000
00000000
00000000
00000000
00000000
00000000
00001400
0001FF00
00078380
001E01C0
002C01D0
003401E0
007001E0
007002E0
007403E0
002E6FF0
000BFAF0
000150F0
000000B0
000000B0
000000B0
00000070
00000070
00000074
60000074
A0000070
B00000B0
390000E0
1F9001D0
02FE47C0
006FFF40
0001A900
ENDCHAR
STARTCHAR Hcircumflex
ENCODING 292
SWIDTH 524 0
DWIDTH 15 0
BBX 14 27 0 0
BITMAP
00010000
00078000
000BD000
002FF400
00B8B800
01E02C00
00000400
00000000
000000C0
300001C0
340001C0
340001C0
340002C0
280002C0
280002C0
2C0006C0
2C006FC0
1C06FAC0
1D6F41C0
2FF401C0
7F4001C0
1E0001D0
0E0001D0
0A0001D0
0A0000E0
0A0000E0
050000A0
ENDCHAR
STARTCHAR hcircumflex
ENCODING 293
SWIDTH 427 0
DWIDTH 12 0
BBX 12 23 -1 0
BITMAP
000100
000780
000BD0
201FF4
70B8BC
39E02C
380004
2C0000
1D0000
1D0000
0E1A40
0FFFD0
0BE5F4
0B0028
0B001C
07000D
07000A
07400A
07400B
03800B
03800F
03800E
02400D
ENDCHAR
STARTCHAR hbar
ENCODING 295
SWIDTH 427 0
DWIDTH 12 0
BBX 13 20 -2 0
BITMAP
08000000
1C000000
0E000000
0E000000
5FA40000
FFFC0000
57440000
03869000
03FFF400
02F97D00
02C00A00
02C00700
01C00340
01C00280
01D00280
01D002C0
00E002C0
00E003C0
00E00380
00900340
ENDCHAR
STARTCHAR Itilde
ENCODING 296
SWIDTH 167 0
DWIDTH 5 0
BBX 11 19 -3 0
BITMAP
1F9074
34BAD0
701B40
210000
028000
01C000
00D000
00E000
00B000
007000
007400
003400
003800
003800
002C00
002C00
002C00
001D00
000C00
ENDCHAR
STARTCHAR itilde
ENCODING 297
SWIDTH 174 0
DWIDTH 5 0
BBX 11 19 -2 0
BITMAP
050010
2F90B4
707BD0
600A40
100000
000000
004000
01C000
01C000
01C000
01D000
01D000
00E000
00E000
00F000
00F400
00B400
007400
003000
ENDCHAR
STARTCHAR imacron
ENCODING 299
SWIDTH 174 0
DWIDTH 5 0
BBX 7 17 -1 0
BITMAP
6BE4
FEBC
4000
0000
0100
0700
0700
0700
0740
0740
0380
0380
03C0
03D0
02D0
01D0
00C0
ENDCHAR
STARTCHAR Ibreve
ENCODING 300
SWIDTH 167 0
DWIDTH 5 0
BBX 5 21 0 0
BITMAP
80C0
A680
2A00
0000
0000
4000
A000
7000
3400
3800
2C00
1C00
1D00
0D00
0E00
0E00
0B00
0B00
0B00
0740
0300
ENDCHAR
STARTCHAR ibreve
ENCODING 301
SWIDTH 174 0
DWIDTH 5 0
BBX 6 17 -1 0
BITMAP
5060
75D0
1A40
0000
0100
0700
0700
0700
0740
0740
0380
0380
03C0
03D0
02D0
01D0
00C0
ENDCHAR
STARTCHAR Iogonek
ENCODING 302
SWIDTH 167 0
DWIDTH 5 0
BBX 6 20 0 -4
BITMAP
4000
A000
7000
3400
3800
2C00
1C00
1D00
0D00
0E00
0E00
0B00
0B00
0B00
0740
2F00
B400
D000
F400
6FD0
ENDCHAR
STARTCHAR iogonek
ENCODING 303
SWIDTH 174 0
DWIDTH 5 0
BBX 6 21 -1 -4
BITMAP
1800
1C00
0000
0000
0100
0700
0700
0700
0740
0740
0380
0380
03C0
03D0
02D0
02D0
1BC0
3900
7000
7800
1FE0
ENDCHAR
STARTCHAR Idotaccent
ENCODING 304
SWIDTH 167 0
DWIDTH 5 0
BBX 6 21 -1 0
BITMAP
1000
7400
3400
0000
0000
1000
2800
1C00
0D00
0E00
0B00
0700
0740
0340
0380
0380
02C0
02C0
02C0
01D0
00C0
ENDCHAR
STARTCHAR dotlessi
ENCODING 305
SWIDTH 174 0
DWIDTH 5 0
BBX 4 13 1 0
BITMAP
10
70
70
70
74
74
38
38
3C
3D
2D
1D
0C
ENDCHAR
STARTCHAR Jcircumflex
ENCODING 308
SWIDTH 439 0
DWIDTH 12 0
BBX 13 28 0 0
BITMAP
00001000
00007400
0000FD00
0002FF40
000B8B80
001E02C0
00000040
00000000
00001000
00003000
00003400
00003800
00002C00
00002C00
00001C00
00001D00
00001D00
00000E00
20000E00
70000A00
74000A00
28000A00
0D000A00
03400A00
01D00E00
00781D00
001FAC00
0002F400
ENDCHAR
STARTCHAR jcircumflex
ENCODING 309
SWIDTH 200 0
DWIDTH 6 0
BBX 10 34 -3 -13
BITMAP
001400
003C00
007F00
00FF80
03D7D0
0B41E0
000000
000000
000000
000000
002400
002800
002C00
001D00
001E00
000E00
000F00
000B40
000B40
000780
000380
000380
0003C0
0002C0
8002C0
D001D0
B001D0
7401D0
3C01D0
1E01D0
0B81C0
02FBC0
007F80
000500
ENDCHAR
STARTCHAR Kcommaaccent
ENCODING 310
SWIDTH 468 0
DWIDTH 13 0
BBX 13 26 0 -9
BITMAP
00005000
6002D000
700B4000
702D0000
70780000
35E00000
37800000
2F000000
2D000000
2F000000
2F800000
29F00000
287D0000
2C0B8000
2C01F400
1D006E00
0C000B40
00000000
00000000
00000000
001D0000
001D0000
000E0000
001D0000
002D0000
00180000
ENDCHAR
STARTCHAR kcommaaccent
ENCODING 311
SWIDTH 403 0
DWIDTH 11 0
BBX 11 26 0 -9
BITMAP
C00000
D00000
A00000
B00000
700180
740780
340E00
382800
2CA000
2FC000
1F4000
1F0000
1F4000
1FD000
1EBE40
2C1FFC
1C01A8
000000
000000
000000
007400
007800
003800
003800
00B400
006000
ENDCHAR
STARTCHAR Lacute
ENCODING 313
SWIDTH 346 0
DWIDTH 10 0
BBX 9 20 0 0
BITMAP
000740
002D00
00B400
009000
000000
180000
2C0000
2C0000
380000
380000
380000
740000
740000
740000
700000
700000
740000
380000
2FFA80
06FFC0
ENDCHAR
STARTCHAR lacute
ENCODING 314
SWIDTH 120 0
DWIDTH 3 0
BBX 5 22 -1 0
BITMAP
0040
0280
1E00
7800
6000
0000
0C00
1D00
1D00
1D00
1D00
1E00
1E00
1E00
1E00
1E00
1E00
1E00
1E00
0E00
0D00
0D00
ENDCHAR
STARTCHAR Lcommaaccent
ENCODING 315
SWIDTH 346 0
DWIDTH 10 0
BBX 9 24 0 -9
BITMAP
180000
2C0000
2C0000
380000
380000
380000
740000
740000
740000
700000
700000
740000
380000
2FFA80
06FFC0
000000
000000
000000
00E000
01E000
00B000
00E000
01E000
018000
ENDCHAR
STARTCHAR lcommaaccent
ENCODING 316
SWIDTH 120 0
DWIDTH 3 0
BBX 3 25 0 -9
BITMAP
30
74
74
74
74
78
78
78
78
78
78
78
78
38
34
34
00
00
00
74
78
38
38
74
60
ENDCHAR
STARTCHAR Lcaron
ENCODING 317
SWIDTH 346 0
DWIDTH 10 0
BBX 9 21 0 0
BITMAP
001000
007000
007400
003400
003800
003800
182800
2C0400
2C0000
380000
380000
380000
740000
740000
740000
700000
700000
740000
380000
2FFA80
06FFC0
ENDCHAR
STARTCHAR lcaron
ENCODING 318
SWIDTH 222 0
DWIDTH 6 0
BBX 6 21 0 0
BITMAP
0040
00C0
00D0
00E0
00E0
30A0
74A0
7410
7400
7400
7800
7800
7800
7800
7800
7800
7800
7800
3800
3400
3400
ENDCHAR
STARTCHAR Ldot
ENCODING 319
SWIDTH 346 0
DWIDTH 10 0
BBX 9 15 0 0
BITMAP
180000
2C0000
2C0000
380000
380000
380000
740000
75F000
76F400
71E000
700000
740000
380000
2FFA80
06FFC0
ENDCHAR
STARTCHAR ldot
ENCODING 320
SWIDTH 333 0
DWIDTH 9 0
BBX 8 16 0 0
BITMAP
3000
7400
7400
7400
7400
7800
7800
7800
782E
787F
782E
7800
7800
3800
3400
3400
ENDCHAR
STARTCHAR Lslash
ENCODING 321
SWIDTH 346 0
DWIDTH 10 0
BBX 11 15 0 0
BITMAP
030000
070000
0B0000
0B0000
0B0000
0E0000
0E4000
0FD000
1FC000
BE0000
6D0000
0E0000
0B5400
07FFF4
006AA4
ENDCHAR
STARTCHAR lslash
ENCODING 322
SWIDTH 120 0
DWIDTH 3 0
BBX 7 17 -2 0
BITMAP
0100
0340
0380
0380
0380
0380
03A4
03F8
07D0
2FC0
E3C0
03C0
03C0
03C0
0280
0280
0140
ENDCHAR
STARTCHAR Nacute
ENCODING 323
SWIDTH 609 0
DWIDTH 17 0
BBX 17 20 0 0
BITMAP
0000100000
0000B00000
0002D00000
000F400000
000C000000
2400000000
2800009000
2C0000F400
2D0000B800
2E00003C00
2F00002D00
2F40000E00
3FC0000B00
39D0000740
34B0000740
3438000740
381E000F00
7807D46D00
7801FFF800
34001A9000
ENDCHAR
STARTCHAR nacute
ENCODING 324
SWIDTH 459 0
DWIDTH 13 0
BBX 13 19 0 0
BITMAP
001A0000
00780000
01E00000
01800000
00000000
00000000
00000000
006F8000
26EAE000
7F40B400
7D002C00
78001D00
38000E00
38000B00
3C000B40
2C000740
1D000740
0E000740
06000700
ENDCHAR
STARTCHAR Ncommaaccent
ENCODING 325
SWIDTH 609 0
DWIDTH 17 0
BBX 17 24 0 -9
BITMAP
2400000000
2800009000
2C0000F400
2D0000B800
2E00003C00
2F00002D00
2F40000E00
3FC0000B00
39D0000740
34B0000740
3438000740
381E000F00
7807D46D00
7801FFF800
34001A9000
0000000000
0000000000
0000000000
0001D00000
0001D00000
0000E00000
0001D00000
0002D00000
0001800000
ENDCHAR
STARTCHAR ncommaaccent
ENCODING 326
SWIDTH 459 0
DWIDTH 13 0
BBX 13 21 0 -9
BITMAP
006F8000
26EAE000
7F40B400
7D002C00
78001D00
38000E00
38000B00
3C000B40
2C000740
1D000740
0E000740
06000700
00000000
00000000
00000000
002C0000
002D0000
001D0000
001D0000
002C0000
00240000
ENDCHAR
STARTCHAR Ncaron
ENCODING 327
SWIDTH 609 0
DWIDTH 17 0
BBX 17 21 0 0
BITMAP
00290B4000
0007BE0000
0001F40000
0000400000
0000000000
0000000000
2400000000
2800009000
2C0000F400
2D0000B800
2E00003C00
2F00002D00
2F40000E00
3FC0000B00
39D0000740
34B0000740
3438000740
381E000F00
7807D46D00
7801FFF800
34001A9000
ENDCHAR
STARTCHAR ncaron
ENCODING 328
SWIDTH 459 0
DWIDTH 13 0
BBX 13 17 0 0
BITMAP
0290B000
007BD000
001E4000
00040000
00000000
006F8000
26EAE000
7F40B400
7D002C00
78001D00
38000E00
38000B00
3C000B40
2C000740
1D000740
0E000740
06000700
ENDCHAR
STARTCHAR napostrophe
ENCODING 329
SWIDTH 459 0
DWIDTH 13 0
BBX 13 19 0 0
BITMAP
07400000
07400000
03800000
07400000
0B400000
0A000000
00000000
006F8000
26EAE000
7F40B400
7D002C00
78001D00
38000E00
38000B00
3C000B40
2C000740
1D000740
0E000740
06000700
ENDCHAR
STARTCHAR Omacron
ENCODING 332
SWIDTH 609 0
DWIDTH 17 0
BBX 17 19 0 0
BITMAP
001FFE0000
003E9A0000
0000000000
0000000000
0000000000
0065000000
07FFE00000
1E45BE0000
38001BD000
700001F400
7000007C00
7000001D00
7000000B00
7400000700
3C00000740
1E00000B00
0BD0007D00
02FE6BE400
002BF94000
ENDCHAR
STARTCHAR omacron
ENCODING 333
SWIDTH 487 0
DWIDTH 14 0
BBX 13 15 0 0
BITMAP
01FFF000
02E9A400
00000000
006FE000
02FAFC00
0E402E00
28000B40
74000380
70000280
70000380
70000780
38001F40
2E007E00
0BEBF800
01BF9000
ENDCHAR
STARTCHAR Obreve
ENCODING 334
SWIDTH 609 0
DWIDTH 17 0
BBX 17 18 0 0
BITMAP
00080C0000
000A680000
0002900000
0000000000
0065000000
07FFE00000
1E45BE0000
38001BD000
700001F400
7000007C00
7000001D00
7000000B00
7400000700
3C00000740
1E00000B00
0BD0007D00
02FE6BE400
002BF94000
ENDCHAR
STARTCHAR obreve
ENCODING 335
SWIDTH 487 0
DWIDTH 14 0
BBX 13 17 0 0
BITMAP
01024000
01EB0000
00690000
00000000
00000000
006FE000
02FAFC00
0E402E00
28000B40
74000380
70000280
70000380
70000780
38001F40
2E007E00
0BEBF800
01BF9000
ENDCHAR
STARTCHAR Ohungarumlaut
ENCODING 336
SWIDTH 609 0
DWIDTH 17 0
BBX 17 20 0 0
BITMAP
0002040000
001E2D0000
0038B40000
0020D00000
0000000000
0000000000
0065000000
07FFE00000
1E45BE0000
38001BD000
700001F400
7000007C00
7000001D00
7000000B00
7400000700
3C00000740
1E00000B00
0BD0007D00
02FE6BE400
002BF94000
ENDCHAR
STARTCHAR ohungarumlaut
ENCODING 337
SWIDTH 487 0
DWIDTH 14 0
BBX 13 16 0 0
BITMAP
00240000
00F5E000
02D78000
024A0000
006FE000
02FAFC00
0E402E00
28000B40
74000380
70000280
70000380
70000780
38001F40
2E007E00
0BEBF800
01BF9000
ENDCHAR
STARTCHAR OE
ENCODING 338
SWIDTH 848 0
DWIDTH 24 0
BBX 23 14 0 0
BITMAP
006501500000
07FF97FFFFF4
1E01F7400004
38007F400000
70002F400000
70000F400550
70000BEBFE90
70000B940000
74000B000000
2C000B000000
1E000F000000
0BD01F000000
01FEBF95AAA8
001BE5BFFFA4
ENDCHAR
STARTCHAR oe
ENCODING 339
SWIDTH 875 0
DWIDTH 25 0
BBX 24 15 0 -1
BITMAP
000000015400
0000001BFD00
001690790B40
01FFF8E00380
0B90BEC00280
2D000B800380
340003801F40
70000395BD00
700003AF9000
700007800000
38000FC00000
2E007EE00000
0BEBF87D0000
01BF901FFABD
00000001BFA0
ENDCHAR
STARTCHAR Racute
ENCODING 340
SWIDTH 579 0
DWIDTH 16 0
BBX 17 24 -1 -1
BITMAP
0000010000
00000B0000
00007C0000
0000F00000
0001800000
0055500000
1BFFFF8000
3D4056F400
7000007C00
2050001E00
00A0000E00
00A0007D00
00B05BF800
007FFF8000
007E900000
003D000000
003F000000
002B800000
0028E00000
001C380000
000C0B4000
000902E000
000500BD00
0000001B40
ENDCHAR
STARTCHAR racute
ENCODING 341
SWIDTH 346 0
DWIDTH 10 0
BBX 10 18 0 0
BITMAP
001D00
00B800
02D000
024000
000000
006900
5BFFC0
BD0590
740000
740000
740000
340000
380000
2C0000
1D0000
0E0000
0B0000
060000
ENDCHAR
STARTCHAR Rcommaaccent
ENCODING 342
SWIDTH 579 0
DWIDTH 16 0
BBX 17 27 -1 -9
BITMAP
0055500000
1BFFFF8000
3D4056F400
7000007C00
2050001E00
00A0000E00
00A0007D00
00B05BF800
007FFF8000
007E900000
003D000000
003F000000
002B800000
0028E00000
001C380000
000C0B4000
000902E000
000500BD00
0000001B40
0000000000
0000000000
0000B00000
0000B40000
0000740000
0000740000
0000F00000
0000900000
ENDCHAR
STARTCHAR rcommaaccent
ENCODING 343
SWIDTH 346 0
DWIDTH 10 0
BBX 10 22 0 -9
BITMAP
006900
5BFFC0
BD0590
740000
740000
740000
340000
380000
2C0000
1D0000
0E0000
0B0000
060000
000000
000000
000000
00E000
01E000
00B000
00E000
01E000
018000
ENDCHAR
STARTCHAR Rcaron
ENCODING 344
SWIDTH 579 0
DWIDTH 16 0
BBX 17 24 -1 -1
BITMAP
001D068000
0006EF4000
0000B80000
0000100000
0000000000
0055500000
1BFFFF8000
3D4056F400
7000007C00
2050001E00
00A0000E00
00A0007D00
00B05BF800
007FFF8000
007E900000
003D000000
003F000000
002B800000
0028E00000
001C380000
000C0B4000
000902E000
000500BD00
0000001B40
ENDCHAR
STARTCHAR rcaron
ENCODING 345
SWIDTH 346 0
DWIDTH 10 0
BBX 10 17 0 0
BITMAP
190780
06AE00
00F800
000000
006900
5BFFC0
BD0590
740000
740000
740000
340000
380000
2C0000
1D0000
0E0000
0B0000
060000
ENDCHAR
STARTCHAR Sacute
ENCODING 346
SWIDTH 627 0
DWIDTH 18 0
BBX 17 24 0 -1
BITMAP
0000040000
0000280000
0001F00000
0007800000
0006000000
0000000000
0006AA4000
007E9BF400
00E0007C00
01C0000400
01D0000000
00B4000000
002E000000
0007E00000
0000BE0000
00000BE000
100000BD00
7000001F00
7400000380
2C00000380
0B40000780
02FA556F00
001BFFE400
0000140000
ENDCHAR
STARTCHAR sacute
ENCODING 347
SWIDTH 514 0
DWIDTH 14 0
BBX 14 20 0 0
BITMAP
00001000
0000A000
0007C000
000E0000
00180000
00000000
00000000
01A90000
1FEBD000
3D00A000
3800A000
2C005000
0F940000
01BFF900
00015B80
000002D0
500001E0
3D0002D0
1FEAAF80
01AFF900
ENDCHAR
STARTCHAR Scircumflex
ENCODING 348
SWIDTH 627 0
DWIDTH 18 0
BBX 17 26 0 -1
BITMAP
0000500000
0000F00000
0001FC0000
0003FE0000
000F5F4000
002D078000
0000000000
0000000000
0006AA4000
007E9BF400
00E0007C00
01C0000400
01D0000000
00B4000000
002E000000
0007E00000
0000BE0000
00000BE000
100000BD00
7000001F00
7400000380
2C00000380
0B40000780
02FA556F00
001BFFE400
0000140000
ENDCHAR
STARTCHAR scircumflex
ENCODING 349
SWIDTH 514 0
DWIDTH 14 0
BBX 14 21 0 0
BITMAP
00010000
00074000
000FD000
002FF400
00B8B800
01E02C00
00000400
00000000
01A90000
1FEBD000
3D00A000
3800A000
2C005000
0F940000
01BFF900
00015B80
000002D0
500001E0
3D0002D0
1FEAAF80
01AFF900
ENDCHAR
STARTCHAR Scedilla
ENCODING 350
SWIDTH 627 0
DWIDTH 18 0
BBX 17 26 0 -9
BITMAP
0006AA4000
007E9BF400
00E0007C00
01C0000400
01D0000000
00B4000000
002E000000
0007E00000
0000BE0000
00000BE000
100000BD00
7000001F00
7400000380
2C00000380
0B40000780
01FA556F00
002FFFE400
0018040000
001C000000
000E400000
0002F90000
00000B0000
0010034000
001D034000
000BAE0000
0001A40000
ENDCHAR
STARTCHAR scedilla
ENCODING 351
SWIDTH 514 0
DWIDTH 14 0
BBX 14 22 0 -9
BITMAP
01A90000
1FEBD000
3D00A000
3800A000
2C005000
0F940000
01BFF900
00015B80
000002D0
500001E0
3D0002D0
1FEAAF80
01FFF900
00D00000
00D00000
00B40000
001BE000
00007800
00402C00
00E02800
007EB400
00064000
ENDCHAR
STARTCHAR Scaron
ENCODING 352
SWIDTH 627 0
DWIDTH 18 0
BBX 17 22 0 -1
BITMAP
0029074000
0007AE0000
0000F40000
0000400000
0006AA4000
007E9BF400
00E0007C00
01C0000400
01D0000000
00B4000000
002E000000
0007E00000
0000BE0000
00000BE000
100000BD00
7000001F00
7400000380
2C00000380
0B40000780
02FA556F00
001BFFE400
0000140000
ENDCHAR
STARTCHAR scaron
ENCODING 353
SWIDTH 514 0
DWIDTH 14 0
BBX 14 17 0 0
BITMAP
01E02C00
002EF400
000B8000
00010000
01A90000
1FEBD000
3D00A000
3800A000
2C005000
0F940000
01BFF900
00015B80
000002D0
500001E0
3D0002D0
1FEAAF80
01AFF900
ENDCHAR
STARTCHAR Tcommaaccent
ENCODING 354
SWIDTH 581 0
DWIDTH 16 0
BBX 19 26 0 -8
BITMAP
5555400000
AFFFFFEA40
0056B9AFF4
0000700054
0000740000
0000340000
0000340000
0000340000
0000380000
0000380000
00002C0000
00002C0000
00002D0000
00001D0000
00001E0000
00000E0000
00000F4000
0000078000
0000000000
0000000000
00000E0000
00000F0000
00000B0000
00000B0000
00000E0000
0000090000
ENDCHAR
STARTCHAR tcommaaccent
ENCODING 355
SWIDTH 328 0
DWIDTH 9 0
BBX 9 26 0 -9
BITMAP
01C000
02D000
01D000
01D000
01D000
02D000
AFFF80
6BFA40
01D000
01D000
01E000
01E000
01E000
01E000
00E000
00E000
005000
000000
000000
000000
01D000
01E000
00E000
00D000
02D000
018000
ENDCHAR
STARTCHAR Tcaron
ENCODING 356
SWIDTH 581 0
DWIDTH 16 0
BBX 19 21 0 0
BITMAP
00781A0000
000BBD0000
0002E00000
5555400000
AFFFFFEA40
0056B9AFF4
0000700054
0000740000
0000340000
0000340000
0000340000
0000380000
0000380000
00002C0000
00002C0000
00002D0000
00001D0000
00001E0000
00000E0000
00000F4000
0000078000
ENDCHAR
STARTCHAR tcaron
ENCODING 357
SWIDTH 431 0
DWIDTH 12 0
BBX 12 21 0 0
BITMAP
000004
00001C
00001D
00001D
01C00E
02D00E
01D00A
01D001
01D000
02D000
AFFF80
6BFA40
01D000
01D000
01E000
01E000
01E000
01E000
00E000
00E000
005000
ENDCHAR
STARTCHAR Utilde
ENCODING 360
SWIDTH 571 0
DWIDTH 16 0
BBX 16 19 0 0
BITMAP
00BE02C0
02C6EB00
02807800
01400000
1D000140
380002C0
300002C0
700002C0
700002D0
700001D0
340000D0
340000E0
280000B0
2C0000B4
1D0001F8
0B0007FC
07806E6D
02FFF40E
007F4000
ENDCHAR
STARTCHAR utilde
ENCODING 361
SWIDTH 501 0
DWIDTH 14 0
BBX 14 18 0 0
BITMAP
01F80740
074BAD00
0701A400
02000000
00000000
70000000
B0000900
B0000E00
B0000E00
70000F00
74000F00
38000F00
2C002F00
1D007F40
0B41E780
03EB82C0
00BE01D0
00000090
ENDCHAR
STARTCHAR Umacron
ENCODING 362
SWIDTH 571 0
DWIDTH 16 0
BBX 16 19 0 0
BITMAP
002FFD00
00BA6900
00000000
00000000
1D000140
380002C0
300002C0
700002C0
700002D0
700001D0
340000D0
340000E0
280000B0
2C0000B4
1D0001F8
0B0007FC
07806E6D
02FFF40E
007F4000
ENDCHAR
STARTCHAR umacron
ENCODING 363
SWIDTH 501 0
DWIDTH 14 0
BBX 14 17 0 0
BITMAP
02FFE000
07EAA000
00000000
00000000
70000000
B0000900
B0000E00
B0000E00
70000F00
74000F00
38000F00
2C002F00
1D007F40
0B41E780
03EB82C0
00BE01D0
00000090
ENDCHAR
STARTCHAR Ubreve
ENCODING 364
SWIDTH 571 0
DWIDTH 16 0
BBX 16 18 0 0
BITMAP
00142400
001EB400
00069000
1D000140
380002C0
300002C0
700002C0
700002D0
700001D0
340000D0
340000E0
280000B0
2C0000B4
1D0001F8
0B0007FC
07806E6D
02FFF40E
007F4000
ENDCHAR
STARTCHAR ubreve
ENCODING 365
SWIDTH 501 0
DWIDTH 14 0
BBX 14 17 0 0
BITMAP
01418000
00EB4000
00690000
00000000
70000000
B0000900
B0000E00
B0000E00
70000F00
74000F00
38000F00
2C002F00
1D007F40
0B41E780
03EB82C0
00BE01D0
00000090
ENDCHAR
STARTCHAR Uring
ENCODING 366
SWIDTH 571 0
DWIDTH 16 0
BBX 16 20 0 0
BITMAP
000BD000
00287000
00202400
0029B000
00068000
1D000140
380002C0
300002C0
700002C0
700002D0
700001D0
340000D0
340000E0
280000B0
2C0000B4
1D0001F8
0B0007FC
07806E6D
02FFF40E
007F4000
ENDCHAR
STARTCHAR uring
ENCODING 367
SWIDTH 501 0
DWIDTH 14 0
BBX 14 16 0 0
BITMAP
001F4000
00A1C000
00809000
70A6C000
B01A0900
B0000E00
B0000E00
70000F00
74000F00
38000F00
2C002F00
1D007F40
0B41E780
03EB82C0
00BE01D0
00000090
ENDCHAR
STARTCHAR Uhungarumlaut
ENCODING 368
SWIDTH 571 0
DWIDTH 16 0
BBX 16 20 0 0
BITMAP
00050000
002D7800
0075E000
00518000
00000000
1D000140
380002C0
300002C0
700002C0
700002D0
700001D0
340000D0
340000E0
280000B0
2C0000B4
1D0001F8
0B0007FC
07806E6D
02FFF40E
007F4000
ENDCHAR
STARTCHAR uhungarumlaut
ENCODING 369
SWIDTH 501 0
DWIDTH 14 0
BBX 14 19 0 0
BITMAP
00050000
002D7800
0075F000
00518000
00000000
00000000
70000000
B0000900
B0000E00
B0000E00
70000F00
74000F00
38000F00
2C002F00
1D007F40
0B41E780
03EB82C0
00BE01D0
00000090
ENDCHAR
STARTCHAR Uogonek
ENCODING 370
SWIDTH 571 0
DWIDTH 16 0
BBX 16 19 1 -5
BITMAP
34000200
B0000700
A0000740
D0000740
D0000780
D0000380
A0000380
A00002C0
700001D0
700001E0
380002F0
2C000BF4
0E006EB8
07EBE07C
01FF43D4
00100B00
00000A00
000007E5
00000059
ENDCHAR
STARTCHAR uogonek
ENCODING 371
SWIDTH 501 0
DWIDTH 14 0
BBX 15 17 0 -4
BITMAP
70000000
B0000900
B0000E00
B0000E00
70000F00
74000F00
38000F00
2C002F00
1E007F40
0B41E780
03EB81C0
00BE02D0
00001F90
00002800
00003800
00002E50
000006A4
ENDCHAR
STARTCHAR Wcircumflex
ENCODING 372
SWIDTH 703 0
DWIDTH 20 0
BBX 19 25 0 0
BITMAP
0000140000
00002C0000
00007F0000
0000FF8000
0003D7D000
000B41E000
0000000000
0000000000
0000000000
0000000000
0000000000
6000000040
A0000001D0
A0000001E0
B0000000F0
B0000000B4
B000800078
B400D0003C
7400E0002C
7400F0001C
3801F4001C
2C07FC0038
1E1F5F41B4
0BFC07FFD0
01A000BE40
ENDCHAR
STARTCHAR wcircumflex
ENCODING 373
SWIDTH 656 0
DWIDTH 18 0
BBX 18 21 0 0
BITMAP
0000100000
0000740000
0000FD0000
0002FF4000
000B8B8000
001E02C000
0000004000
0000000000
0000000000
1400000000
3400000000
7400000600
B000600340
B0007002C0
B0007401D0
B0007400E0
7400B800E0
2801FC01E0
1D07EE47D0
0BFF47FF80
01B901A900
ENDCHAR
STARTCHAR Ycircumflex
ENCODING 374
SWIDTH 403 0
DWIDTH 11 0
BBX 11 26 0 -1
BITMAP
001000
003C00
007E00
01FF80
07C7D0
0F41D0
000000
600000
700018
780028
2D0038
0F4074
03D0F0
00BEE0
001FD0
0003C0
000380
000740
000A00
000E00
001D00
001C00
001C00
001C00
001C00
000400
ENDCHAR
STARTCHAR ycircumflex
ENCODING 375
SWIDTH 487 0
DWIDTH 14 0
BBX 13 35 0 -14
BITMAP
00050000
000B0000
001FC000
003FE000
00F5F400
02D07800
00000000
00000000
00000100
60000200
A0000700
70000740
70000340
74000380
38000380
2C000380
1D0007C0
0B001FC0
03D1BFC0
00BFD1C0
001500C0
000000C0
000000C0
000001C0
000001C0
000001C0
000002C0
000002C0
10000280
28000340
1E000740
0B800A00
02F46D00
007FF800
00069000
ENDCHAR
STARTCHAR Ydieresis
ENCODING 376
SWIDTH 403 0
DWIDTH 11 0
BBX 11 23 0 -1
BITMAP
024240
0BC7D0
078380
000000
600000
700018
780028
2D0038
0F4074
03D0F0
00BEE0
001FD0
0003C0
000380
000740
000A00
000E00
001D00
001C00
001C00
001C00
001C00
000400
ENDCHAR
STARTCHAR Zacute
ENCODING 377
SWIDTH 571 0
DWIDTH 16 0
BBX 16 23 0 0
BITMAP
00007400
0002D000
000B4000
000D0000
00000000
01540000
2FFF8000
7901F400
00002800
00001C00
00000D00
00001C00
00002C00
0001BD50
01AFFFF4
03ABF540
0002C000
00074000
000E0000
002C0000
007801AD
007EBFF9
002FFA40
ENDCHAR
STARTCHAR zacute
ENCODING 378
SWIDTH 459 0
DWIDTH 13 0
BBX 12 20 0 0
BITMAP
000100
000B00
003D00
00F400
00C000
015400
2FFF40
7802D0
1000D0
0000D0
0001C0
0003C0
16AFF8
3FFE50
007800
01E000
03C000
07C01B
0BFFFE
01BF90
ENDCHAR
STARTCHAR Zdotaccent
ENCODING 379
SWIDTH 571 0
DWIDTH 16 0
BBX 16 22 0 0
BITMAP
00040000
001D0000
000D0000
00000000
01540000
2FFF8000
7901F400
00002800
00001C00
00000D00
00001C00
00002C00
0001BD50
01AFFFF4
03ABF540
0002C000
00074000
000E0000
002C0000
007801AD
007EBFF9
002FFA40
ENDCHAR
STARTCHAR zdotaccent
ENCODING 380
SWIDTH 459 0
DWIDTH 13 0
BBX 12 19 0 0
BITMAP
000400
001D00
000D00
000000
015400
2FFF40
7802D0
1000D0
0000D0
0001C0
0003C0
16AFF8
3FFE50
007800
01E000
03C000
07C01B
0BFFFE
01BF90
ENDCHAR
STARTCHAR Zcaron
ENCODING 381
SWIDTH 571 0
DWIDTH 16 0
BBX 16 22 0 0
BITMAP
01906800
006AE000
000F8000
00010000
01540000
2FFF8000
7901F400
00002800
00001C00
00000D00
00001C00
00002C00
0001BD50
01AFFFF4
03ABF540
0002C000
00074000
000E0000
002C0000
007801AD
007EBFF9
002FFA40
ENDCHAR
STARTCHAR zcaron
ENCODING 382
SWIDTH 459 0
DWIDTH 13 0
BBX 12 19 0 0
BITMAP
1A02C0
02EF40
00B800
001000
015400
2FFF40
7802D0
1000D0
0000D0
0001C0
0003C0
16AFF8
3FFE50
007800
01E000
03C000
07C01B
0BFFFE
01BF90
ENDCHAR
STARTCHAR florin
ENCODING 402
SWIDTH 376 0
DWIDTH 11 0
BBX 16 28 -3 -8
BITMAP
00002A40
0001FFE0
0003D078
000B401D
000E0005
000E0000
001D0000
001D0000
001D0000
001D0000
001E0000
02BFFA40
039F6A40
000B0000
000B0000
000A0000
000A0000
000E0000
000E0000
000E0000
000E0000
000E0000
600E0000
780D0000
1E1D0000
07AD0000
00BD0000
00040000
ENDCHAR
STARTCHAR AEacute
ENCODING 508
SWIDTH 960 0
DWIDTH 27 0
BBX 26 25 0 0
BITMAP
00000000400000
00000002800000
0000001F000000
00050038000000
007FE060000000
02D07D00000000
07400F00000000
0A000745555500
0D0002CFFFFFD0
0C0001DE555050
1C0000AD000000
180000BD000000
1800007D000000
2800007D000040
2800003E15AFC0
2955007FFFA900
7FFFFFFD000000
2C00057C000000
1C00002C000000
1C00002C000000
1C00002C000000
1D00002C000000
1D00003C001550
0E00003FFFFFF0
0A000036BFFA40
ENDCHAR
STARTCHAR aeacute
ENCODING 509
SWIDTH 881 0
DWIDTH 25 0
BBX 24 21 0 -1
BITMAP
000000040000
0000001C0000
000000B40000
000002D00000
000003400000
000000000000
007E0001A800
00EBD01FAF00
0000B4780380
00002DE002C0
00000FD001C0
00694BC00380
0BFFFFC01F40
2E402FEAF900
740007DA5000
700002D00000
700000E00000
3D0005B80000
0BFFFFAF9415
01AFE407FFFD
000000005A50
ENDCHAR
STARTCHAR Oslashacute
ENCODING 510
SWIDTH 609 0
DWIDTH 17 0
BBX 17 23 0 -3
BITMAP
0000100000
0000B00000
0007C00000
000E000000
0008000000
0000050000
0065090000
07FFED0000
1E45BE0000
38002FD000
700035F400
7000707C00
7000A01D00
7000D00B00
7402C00700
3C03800740
1E07400B00
0BDB007D00
02FE6BE400
003FF94000
0038000000
0070000000
0010000000
ENDCHAR
STARTCHAR oslashacute
ENCODING 511
SWIDTH 487 0
DWIDTH 14 0
BBX 13 17 0 0
BITMAP
00008000
00078000
001E0000
00380000
00100000
00165600
01FFFE00
0B90BE00
2D003F00
3400B780
7002D280
70078280
700F0780
382D0F40
2DB47E00
0BFBF800
03BF9000
ENDCHAR
STARTCHAR Scommaaccent
ENCODING 536
SWIDTH 627 0
DWIDTH 18 0
BBX 17 26 0 -9
BITMAP
0006AA4000
007E9BF400
00E0007C00
01C0000400
01D0000000
00B4000000
002E000000
0007E00000
0000BE0000
00000BE000
100000BD00
7000001F00
7400000380
2C00000380
0B40000780
02FA556F00
001BFFE400
0000140000
0000000000
0000000000
0002C00000
0002D00000
0001D00000
0001D00000
0003C00000
0002400000
ENDCHAR
STARTCHAR scommaaccent
ENCODING 537
SWIDTH 514 0
DWIDTH 14 0
BBX 14 22 0 -9
BITMAP
01A90000
1FEBD000
3D00A000
3800A000
2C005000
0F940000
01BFF900
00015B80
000002D0
500001E0
3D0002D0
1FEAAF80
01AFF900
00000000
00000000
00000000
000B0000
000B0000
00074000
000B0000
000F0000
00090000
ENDCHAR
STARTCHAR circumflex
ENCODING 710
SWIDTH 375 0
DWIDTH 11 0
BBX 8 7 1 14
BITMAP
0040
01D0
03F4
0BFC
2E2E
780B
0001
ENDCHAR
STARTCHAR caron
ENCODING 711
SWIDTH 375 0
DWIDTH 11 0
BBX 8 4 1 13
BITMAP
780B
0BBD
02E0
0040
ENDCHAR
STARTCHAR breve
ENCODING 728
SWIDTH 224 0
DWIDTH 6 0
BBX 6 3 0 11
BITMAP
5060
3AD0
1A40
ENDCHAR
STARTCHAR dotaccent
ENCODING 729
SWIDTH 152 0
DWIDTH 4 0
BBX 2 3 1 13
BITMAP
50
B0
70
ENDCHAR
STARTCHAR ring
ENCODING 730
SWIDTH 333 0
DWIDTH 9 0
BBX 6 5 2 11
BITMAP
1B80
6490
5060
25D0
1A40
ENDCHAR
STARTCHAR ogonek
ENCODING 731
SWIDTH 254 0
DWIDTH 7 0
BBX 5 5 1 -4
BITMAP
2E00
B400
D000
E000
7F80
ENDCHAR
STARTCHAR tilde
ENCODING 732
SWIDTH 402 0
DWIDTH 11 0
BBX 11 4 0 11
BITMAP
2F8074
74BAD0
701A40
200000
ENDCHAR
STARTCHAR hungarumlaut
ENCODING 733
SWIDTH 264 0
DWIDTH 7 0
BBX 6 4 1 12
BITMAP
1810
78B0
E2D0
8340
ENDCHAR
STARTCHAR Wgrave
ENCODING 7808
SWIDTH 703 0
DWIDTH 20 0
BBX 19 20 0 0
BITMAP
0000500000
0000780000
00001E0000
0000060000
0000000000
0000000000
6000000040
A0000001D0
A0000001E0
B0000000F0
B0000000B4
B000800078
B400D0003C
7400E0002C
7400F0001C
3801F4001C
2C07FC0038
1E1F5F41B4
0BFC07FFD0
01A000BE40
ENDCHAR
STARTCHAR wgrave
ENCODING 7809
SWIDTH 656 0
DWIDTH 18 0
BBX 18 16 0 0
BITMAP
0000400000
0000F40000
00007D0000
0000090000
1400000000
3400000000
7400000600
B000600340
B0007002C0
B0007401D0
B0007400E0
7400B800E0
2801FC01E0
1D07EE47D0
0BFF47FF80
01B901A900
ENDCHAR
STARTCHAR Wacute
ENCODING 7810
SWIDTH 703 0
DWIDTH 20 0
BBX 19 19 0 0
BITMAP
00001D0000
0000B80000
0002D00000
0002400000
0000000000
6000000040
A0000001D0
A0000001E0
B0000000F0
B0000000B4
B000800078
B400D0003C
7400E0002C
7400F0001C
3801F4001C
2C07FC0038
1E1F5F41B4
0BFC07FFD0
01A000BE40
ENDCHAR
STARTCHAR wacute
ENCODING 7811
SWIDTH 656 0
DWIDTH 18 0
BBX 18 18 0 0
BITMAP
00001D0000
0000B40000
0002D00000
0002400000
0000000000
0000000000
1400000000
3400000000
7400000600
B000600340
B0007002C0
B0007401D0
B0007400E0
7400B800E0
2801FC01E0
1D07EE47D0
0BFF47FF80
01B901A900
ENDCHAR
STARTCHAR Wdieresis
ENCODING 7812
SWIDTH 703 0
DWIDTH 20 0
BBX 19 19 0 0
BITMAP
0002418000
000BC7D000
0007838000
0000000000
0000000000
6000000040
A0000001D0
A0000001E0
B0000000F0
B0000000B4
B000800078
B400D0003C
7400E0002C
7400F0001C
3801F4001C
2C07FC0038
1E1F5F41B4
0BFC07FFD0
01A000BE40
ENDCHAR
STARTCHAR wdieresis
ENCODING 7813
SWIDTH 656 0
DWIDTH 18 0
BBX 18 15 0 0
BITMAP
0009060000
001F4F8000
000E0B4000
1400000000
3400000000
7400000600
B000600340
B0007002C0
B0007401D0
B0007400E0
7400B800E0
2801FC01E0
1D07EE47D0
0BFF47FF80
01B901A900
ENDCHAR
STARTCHAR Ygrave
ENCODING 7922
SWIDTH 403 0
DWIDTH 11 0
BBX 11 24 0 -1
BITMAP
004000
00F400
003D00
000900
000000
600000
700018
780028
2D0038
0F4074
03D0F0
00BEE0
001FD0
0003C0
000380
000740
000A00
000E00
001D00
001C00
001C00
001C00
001C00
000400
ENDCHAR
STARTCHAR ygrave
ENCODING 7923
SWIDTH 487 0
DWIDTH 14 0
BBX 13 30 0 -14
BITMAP
00140000
001E0000
00078000
00018100
60000200
A0000700
70000740
70000340
74000380
38000380
2C000380
1D0007C0
0B001FC0
03D1BFC0
00BFD1C0
001500C0
000000C0
000000C0
000001C0
000001C0
000001C0
000002C0
000002C0
10000280
28000340
1E000740
0B800A00
02F46D00
007FF800
00069000
ENDCHAR
STARTCHAR endash
ENCODING 8211
SWIDTH 287 0
DWIDTH 8 0
BBX 8 3 0 6
BITMAP
2AF9
7EAE
1000
ENDCHAR
STARTCHAR emdash
ENCODING 8212
SWIDTH 512 0
DWIDTH 14 0
BBX 14 3 0 6
BITMAP
06AAAF80
7FFFAAD0
10000000
ENDCHAR
STARTCHAR quoteleft
ENCODING 8216
SWIDTH 102 0
DWIDTH 3 0
BBX 3 7 0 13
BITMAP
60
70
74
74
74
34
10
ENDCHAR
STARTCHAR quoteright
ENCODING 8217
SWIDTH 102 0
DWIDTH 3 0
BBX 3 7 0 13
BITMAP
60
70
74
74
74
34
10
ENDCHAR
STARTCHAR quotesinglbase
ENCODING 8218
SWIDTH 102 0
DWIDTH 3 0
BBX 3 7 0 -1
BITMAP
60
70
74
74
34
38
24
ENDCHAR
STARTCHAR quotedblleft
ENCODING 8220
SWIDTH 234 0
DWIDTH 7 0
BBX 6 9 0 14
BITMAP
0040
40C0
A0D0
B0E0
70E0
74E0
38E0
2CA0
18A0
ENDCHAR
STARTCHAR quotedblright
ENCODING 8221
SWIDTH 234 0
DWIDTH 7 0
BBX 6 9 0 14
BITMAP
0040
40C0
A0D0
B0E0
70E0
74E0
38E0
2CA0
18A0
ENDCHAR
STARTCHAR quotedblbase
ENCODING 8222
SWIDTH 341 0
DWIDTH 10 0
BBX 6 9 2 -4
BITMAP
4180
D1C0
A1D0
B1D0
B1D0
74E0
38E0
28E0
0050
ENDCHAR
STARTCHAR dagger
ENCODING 8224
SWIDTH 375 0
DWIDTH 11 0
BBX 10 18 0 0
BITMAP
018000
01C000
00D000
00D000
00A000
007000
1BFFD0
7FBAA0
003400
003400
003400
003800
003800
003800
003800
003800
003800
002800
ENDCHAR
STARTCHAR daggerdbl
ENCODING 8225
SWIDTH 375 0
DWIDTH 11 0
BBX 14 21 -2 0
BITMAP
00180000
001C0000
001D0000
000E0000
000E0000
000A0000
00070000
055B5540
7FFFFFE0
15574090
00034000
15ABAA40
3FFFFFC0
00024000
00024000
00028000
00028000
00028000
00028000
00028000
00028000
ENDCHAR
STARTCHAR bullet
ENCODING 8226
SWIDTH 341 0
DWIDTH 10 0
BBX 5 6 3 4
BITMAP
2D00
7F40
FF80
FF80
7F00
1400
ENDCHAR
STARTCHAR ellipsis
ENCODING 8230
SWIDTH 612 0
DWIDTH 17 0
BBX 16 6 1 0
BITMAP
00010010
3D0780B8
7E0BD0FC
BF0FE1FD
BE0BD0FC
38078074
ENDCHAR
STARTCHAR guilsinglleft
ENCODING 8249
SWIDTH 487 0
DWIDTH 14 0
BBX 13 12 0 0
BITMAP
00000140
00001B40
00007D00
0002E000
001F4000
00B80000
07D00000
1E000000
7D000000
BFFA5000
06AFFD00
00001A00
ENDCHAR
STARTCHAR guilsinglright
ENCODING 8250
SWIDTH 403 0
DWIDTH 11 0
BBX 10 13 1 0
BITMAP
E00000
B90000
1FD000
01FF90
0016F0
0001F0
0007D0
001F40
00B800
07D000
2F4000
B80000
D00000
ENDCHAR
STARTCHAR fraction
ENCODING 8260
SWIDTH 309 0
DWIDTH 9 0
BBX 8 21 0 0
BITMAP
0002
0007
0007
000A
000D
001D
002C
0038
0074
00B0
00E0
02D0
03C0
0780
0B40
0E00
1D00
3C00
7800
B000
A000
ENDCHAR
STARTCHAR Euro
ENCODING 8364
SWIDTH 741 0
DWIDTH 21 0
BBX 20 20 0 0
BITMAP
0000000140
0000002FF0
000001F820
0000074000
00002D0000
0005BFE400
6FFFFFFD00
FA5B800000
000A000000
000D000000
001D56A800
057FFEA400
BFF9400000
0034000000
0034000000
0028000000
001C000000
000E0005AE
0007EABFF9
0001BFE940
ENDCHAR
STARTCHAR trademark
ENCODING 8482
SWIDTH 1116 0
DWIDTH 31 0
BBX 31 17 0 0
BITMAP
BFFFFAA5780000D0
05AAFEBFFD0002D0
00007001AF0003D0
000074000F800BD0
000074000FD01FD0
000034000EBEFFC0
000034000E2FE6D0
000038000E0001D0
000038000E0001D0
00002C000E0000E0
00002C000E0000E0
00002C001E0000F0
00001D001E0000B0
00001E001E0000B4
00000E001E0000B4
00000F400E000074
0000078000000074
ENDCHAR
STARTCHAR minus
ENCODING 8722
SWIDTH 287 0
DWIDTH 8 0
BBX 8 3 0 6
BITMAP
2AF9
7EAE
1000
ENDCHAR
STARTCHAR commaaccent
ENCODING 63171
SWIDTH 375 0
DWIDTH 11 0
BBX 3 6 3 -9
BITMAP
B0
B4
74
74
B0
90
ENDCHAR
STARTCHAR fi
ENCODING 64257
SWIDTH 551 0
DWIDTH 15 0
BBX 13 21 0 -1
BITMAP
000A9000
007FF800
00F41E00
02C04740
0340E140
03005000
07000000
07000000
07401400
07402800
07802800
AFFEB800
E7EBFC00
01E02C00
00E02D00
00741E00
003C1E00
001E1E00
000F4F00
00074B00
00000500
ENDCHAR
STARTCHAR fl
ENCODING 64258
SWIDTH 723 0
DWIDTH 20 0
BBX 13 20 0 0
BITMAP
000A9000
007FF800
00F41E00
02C00740
03402140
03003400
07003800
07003800
07403800
07403800
07807800
AFFEB800
E7EBF800
01E07800
00E03800
00743800
003C3800
001E3800
000F7800
00076400
ENDCHAR
STARTCHAR .notdef
ENCODING -1
SWIDTH 375 0
DWIDTH 11 0
BBX 1 1 0 0
BITMAP
00
ENDCHAR
STARTCHAR .null
ENCODING -1
SWIDTH 0 0
DWIDTH 0 0
BBX 1 1 0 0
BITMAP
00
ENDCHAR
STARTCHAR nonmarkingreturn
ENCODING -1
SWIDTH 375 0
DWIDTH 11 0
BBX 1 1 0 0
BITMAP
00
ENDCHAR
ENDFONT
